<?xml version="1.0" encoding="utf-8"?>
<!-- Generator: Adobe Illustrator 23.0.3, SVG Export Plug-In . SVG Version: 6.00 Build 0)  -->
<svg version="1.1" xmlns="http://www.w3.org/2000/svg" xmlns:xlink="http://www.w3.org/1999/xlink" x="0px" y="0px"
	 viewBox="0 0 660 660" style="enable-background:new 0 0 660 660;" xml:space="preserve">
<style type="text/css">
	.st1{fill:#FFFFFF;}
	.st3{fill:url(#SVGID_1_);}
	.st4{fill:none;stroke:url(#SVGID_2_);stroke-width:10;stroke-miterlimit:10;}
</style>
<g id="Logo_UA">
	<g id="Forme_intérieure">
		<linearGradient id="SVGID_1_" gradientUnits="userSpaceOnUse" x1="168.8034" y1="109.4162" x2="415.9752" y2="537.5302">
			<stop  offset="0" style="stop-color:#FB560C"/>
			<stop  offset="1" style="stop-color:#E21562"/>
		</linearGradient>
		<path class="st3" d="M612.52,261.9l-79.98-90.52l-31.75,18.01C456.8,121.18,380.15,76.02,292.95,76.02
			c-136.49,0-247.13,110.64-247.13,247.13c0,39.42,9.24,76.67,25.66,109.73l-32.91,18.67l37.62,113.49l72.7-41.09
			c40.56,29.15,90.3,46.33,144.06,46.33c136.49,0,247.13-110.64,247.13-247.13c0-6.68-0.27-13.31-0.8-19.86L612.52,261.9z
			 M284.73,483.05c-103.93,0-188.18-84.25-188.18-188.18s84.25-188.18,188.18-188.18s188.18,84.25,188.18,188.18
			S388.66,483.05,284.73,483.05z"/>
	</g>
	<g id="Ligne_extérieure">
		<linearGradient id="SVGID_2_" gradientUnits="userSpaceOnUse" x1="157.3421" y1="89.5602" x2="427.8748" y2="558.1365">
			<stop  offset="0" style="stop-color:#FB560C"/>
			<stop  offset="1" style="stop-color:#E21562"/>
		</linearGradient>
		<path class="st4" d="M506.43,164.67l30.09-17.06l38.97,44.1l66.37,75.12l-83.21,47.03c0.11,3.11,0.16,6.22,0.16,9.29
			c0,34.89-6.67,68.75-19.42,100.13 M179.1,82.75c35.13-16.67,73.82-25.46,113.86-25.46c38.38,0,75.49,8.16,109.25,23.35
			c8.42,3.79,16.63,8.01,24.6,12.66 M104.98,570.28l-39.4,22.27l-15.07-45.46L15.96,442.85l31.38-17.8
			c-3.33-8-6.26-16.12-8.78-24.36c-7.62-24.94-11.47-50.89-11.47-77.55c0-59.34,19.31-115.7,54.95-161.93 M480.94,511.13
			C430.73,561.35,363.97,589,292.95,589c-24.21,0-47.96-3.22-70.79-9.5c-17.65-4.86-34.75-11.55-51.08-20.01"/>
	</g>
</g>
<g id="Calque_10">
	<g>
		<path class="st1" d="M261.47,233.97v-60.46h20.22v60.52c0,11.16-3.95,20.69-11.84,28.59c-7.94,7.85-17.45,11.78-28.53,11.78
			c-11.2,0-20.75-3.93-28.65-11.78c-7.9-7.9-11.84-17.43-11.84-28.59v-60.52h20.22v60.46c0,10.9,9.23,20.09,20.22,20.09
			C252.14,254.07,261.47,244.81,261.47,233.97z"/>
		<path class="st1" d="M326.71,171.47l45.64,102.01h-21.77l-6.76-15.19h-34.23l-6.76,15.19h-21.7L326.71,171.47z M335.89,240.55
			l-9.12-21.15l-9.24,21.15H335.89z"/>
		<path class="st1" d="M169.26,324.55h-20.09c0-9.84,3.47-18.23,10.42-25.18c6.99-6.94,15.42-10.42,25.3-10.42
			c9.84,0,18.23,3.47,25.18,10.42c6.99,6.99,10.48,15.38,10.48,25.18c0,5.95-1.61,11.8-4.84,17.55s-7.26,11.2-12.09,16.37
			c-3.75,3.92-7.04,7.56-11.29,10.98h27.78v20.03H148.8l3.41-11.41c11.15-7.84,23.61-18.71,32.68-28.56
			c4.59-4.98,8.32-9.67,11.19-14.08c2.87-4.4,4.31-8.03,4.31-10.88c0-8.56-7.07-15.5-15.56-15.5
			C176.31,309.05,169.26,316.05,169.26,324.55z"/>
		<path class="st1" d="M265.69,288.95c11.91,0,21.44,5.04,28.59,15.13c6.9,9.59,10.36,21.37,10.36,35.35
			c0,14.06-3.45,25.88-10.36,35.47c-7.19,10.05-16.72,15.07-28.59,15.07c-24.68,0-38.94-23.67-38.94-50.54
			C226.75,312.64,241.09,288.95,265.69,288.95z M265.63,309.17c-5,0-9.1,2.17-12.28,6.51c-4.38,6.24-6.57,14.16-6.57,23.75
			c0,9.72,2.19,17.63,6.57,23.75c3.18,4.34,7.28,6.51,12.28,6.51c5.04,0,9.16-2.17,12.34-6.51c4.34-6.08,6.51-13.99,6.51-23.75
			c0-9.67-2.17-17.59-6.51-23.75C274.79,311.34,270.67,309.17,265.63,309.17z"/>
		<path class="st1" d="M341.03,289.08v100.4h-20.09v-73.86l-10.11,2.98v-20.96L341.03,289.08z"/>
		<path class="st1" d="M365.59,389.48l17.36-30.26c-9.18-0.66-16.89-4.36-23.13-11.1c-6.33-6.74-9.49-14.72-9.49-23.94
			c0-9.63,3.43-17.92,10.29-24.87c6.78-6.86,15.05-10.29,24.8-10.29c9.72,0,18,3.43,24.87,10.29c6.9,6.9,10.36,15.19,10.36,24.87
			c0,5.62-1.3,10.98-3.91,16.06c-0.62,1.11-1.57,3.14-2.11,4.03l-26.04,45.14L365.59,389.48z M385.43,339.18
			c8.28,0,15.13-6.86,15.13-15.07c0-8.2-6.89-15.13-15.13-15.13c-8.3,0-15.07,6.95-15.07,15.13
			C370.37,332.26,377.2,339.15,385.43,339.18z"/>
	</g>
</g>
</svg>
