<?xml version="1.0" standalone="no"?>
<!DOCTYPE svg PUBLIC "-//W3C//DTD SVG 20010904//EN"
 "http://www.w3.org/TR/2001/REC-SVG-20010904/DTD/svg10.dtd">
<svg version="1.0" xmlns="http://www.w3.org/2000/svg"
 width="2136.000000pt" height="2136.000000pt" viewBox="0 0 2136.000000 2136.000000"
 preserveAspectRatio="xMidYMid meet">
<metadata>
Created by potrace 1.14, written by Peter Selinger 2001-2017
</metadata>
<g transform="translate(0.000000,2136.000000) scale(0.100000,-0.100000)"
fill="#000000" stroke="none">
<path d="M9048 19845 c-1 -1 -66 -6 -143 -9 -77 -4 -160 -9 -185 -11 -25 -2
-72 -6 -105 -9 -126 -11 -186 -17 -460 -51 -22 -2 -50 -7 -62 -9 -12 -3 -73
-12 -135 -21 -62 -9 -142 -23 -178 -30 -36 -7 -81 -16 -100 -19 -80 -12 -431
-91 -542 -121 -10 -3 -28 -7 -40 -10 -160 -33 -844 -251 -1023 -325 -11 -5
-96 -39 -190 -76 -93 -37 -201 -81 -240 -99 -38 -17 -96 -42 -127 -55 -50 -20
-55 -25 -48 -44 8 -21 40 -91 98 -218 l31 -67 103 45 c768 338 1582 579 2366
698 64 10 118 19 132 21 8 1 46 6 83 10 37 3 78 8 90 11 23 4 90 11 172 18 28
3 82 7 120 11 306 28 749 37 1115 21 96 -4 186 -9 200 -11 14 -1 66 -6 115 -9
50 -4 106 -9 125 -11 296 -33 311 -35 470 -59 58 -9 116 -18 130 -21 14 -3 41
-8 60 -11 749 -122 1624 -401 2453 -783 86 -39 468 -230 482 -240 37 -28 43
-22 121 126 60 115 73 147 63 154 -36 23 -442 224 -589 291 -612 281 -1231
498 -1845 649 -115 28 -221 53 -235 56 -14 2 -44 8 -68 14 -23 5 -59 12 -80
15 -20 3 -40 8 -43 10 -4 2 -24 6 -45 9 -22 4 -46 8 -54 10 -8 2 -28 6 -45 9
-16 3 -84 14 -150 25 -66 10 -142 22 -168 26 -27 4 -58 8 -69 10 -11 3 -41 7
-67 10 -25 3 -82 9 -126 15 -118 14 -242 25 -385 35 -47 4 -107 8 -135 11 -57
5 -842 14 -847 9z"/>
<path d="M9116 19164 c-10 -10 -16 -11 -16 -3 0 9 -4 8 -15 -1 -12 -10 -15
-10 -15 0 0 9 -4 9 -17 -1 -15 -12 -16 -12 -8 1 8 13 7 13 -8 1 -9 -7 -17 -9
-17 -4 0 5 -7 10 -15 10 -8 0 -15 -3 -15 -7 0 -3 -27 -6 -60 -5 -33 0 -60 -3
-60 -6 0 -3 -16 -5 -35 -2 -24 2 -35 -1 -35 -9 0 -8 -3 -9 -8 -3 -4 6 -16 10
-27 10 -11 0 -23 -4 -27 -10 -5 -6 -8 -5 -8 4 0 11 -3 11 -16 0 -13 -10 -17
-10 -25 2 -6 9 -9 10 -9 2 0 -7 -7 -10 -17 -6 -12 5 -14 3 -8 -7 5 -9 4 -11
-4 -6 -18 12 -61 15 -61 5 0 -5 -5 -9 -11 -9 -5 0 -8 3 -6 8 3 4 -5 7 -18 7
-19 0 -21 -3 -12 -14 10 -12 9 -12 -9 -3 -16 8 -24 8 -32 0 -8 -8 -12 -8 -12
-2 0 12 -29 12 -48 0 -6 -4 -16 -4 -22 -1 -5 3 -10 2 -10 -3 0 -4 -20 -8 -45
-7 -25 0 -45 -4 -45 -10 0 -5 -5 -3 -10 5 -6 10 -10 11 -10 3 0 -7 -10 -13
-22 -13 -13 0 -34 0 -48 -1 -13 0 -31 -5 -39 -12 -12 -10 -13 -9 -6 3 8 13 7
13 -8 1 -14 -11 -17 -11 -17 0 0 9 -3 10 -8 4 -4 -6 -20 -12 -36 -13 -16 -1
-36 -8 -44 -15 -13 -9 -14 -9 -8 1 8 14 -3 16 -24 2 -9 -6 -17 -5 -22 3 -6 9
-8 9 -8 0 0 -7 -10 -13 -23 -13 -13 0 -29 -6 -36 -12 -11 -11 -12 -10 -6 1 6
11 4 13 -11 6 -10 -4 -33 -8 -51 -9 -17 -1 -29 -5 -26 -10 4 -5 -5 -6 -19 -3
-14 4 -28 4 -32 0 -8 -9 -33 -14 -68 -15 -16 -1 -28 -5 -28 -10 0 -5 -10 -4
-21 3 -15 8 -19 8 -15 0 4 -7 -1 -11 -13 -11 -11 0 -23 -4 -26 -10 -3 -5 -12
-10 -18 -10 -7 0 -6 4 3 11 11 8 9 9 -10 3 -14 -4 -28 -12 -32 -18 -5 -7 -8
-6 -9 4 0 10 -3 8 -9 -5 -5 -11 -9 -14 -9 -6 -1 8 -7 11 -18 6 -10 -4 -23 -8
-30 -9 -7 -1 -15 -5 -19 -8 -3 -4 -12 -4 -19 -2 -7 3 -16 1 -19 -5 -4 -6 -13
-8 -21 -4 -9 3 -15 -1 -15 -8 0 -11 -3 -11 -10 1 -5 8 -10 10 -10 4 0 -15 -48
-24 -54 -10 -3 7 -5 6 -5 -2 -1 -7 -5 -10 -11 -7 -5 3 -10 1 -10 -5 0 -6 -5
-8 -10 -5 -6 4 -18 1 -27 -7 -14 -11 -16 -11 -8 2 8 13 7 13 -8 1 -9 -7 -17
-10 -17 -6 0 4 -6 2 -13 -4 -8 -6 -16 -8 -20 -5 -3 3 -17 -2 -31 -11 -14 -10
-26 -13 -26 -9 0 5 -5 2 -10 -6 -8 -12 -10 -12 -10 -1 0 11 -3 11 -15 1 -8 -6
-19 -9 -25 -5 -5 3 -10 1 -10 -6 0 -7 -3 -9 -7 -6 -3 4 -12 2 -19 -3 -6 -6
-16 -10 -20 -9 -5 2 -29 -4 -54 -11 -25 -8 -52 -14 -60 -14 -8 0 -21 -6 -29
-14 -9 -9 -17 -10 -26 -2 -10 8 -15 8 -21 -1 -5 -8 -3 -9 6 -4 9 5 11 4 6 -3
-4 -7 -20 -12 -35 -12 -15 0 -31 -3 -35 -7 -4 -5 -11 -8 -14 -8 -16 -1 -88
-28 -99 -37 -7 -5 -17 -7 -23 -3 -5 3 -10 1 -10 -5 0 -6 -5 -8 -10 -5 -6 4
-17 1 -25 -5 -8 -6 -19 -9 -25 -5 -5 3 -10 1 -10 -5 0 -6 -4 -8 -10 -5 -5 3
-10 1 -10 -6 0 -7 -3 -10 -6 -6 -8 7 -83 -21 -105 -39 -12 -11 -18 -11 -27 -2
-8 8 -12 8 -12 1 0 -6 -7 -14 -16 -17 -10 -4 -13 -2 -8 7 4 6 -5 1 -21 -13
-16 -14 -25 -19 -20 -11 5 9 -1 8 -18 -4 -15 -9 -30 -14 -36 -11 -5 3 -11 -1
-15 -9 -3 -8 -12 -12 -21 -9 -8 3 -15 1 -15 -5 0 -7 -8 -11 -17 -9 -10 2 -17
-1 -16 -7 1 -5 -12 -11 -29 -11 -17 -1 -34 -7 -38 -14 -4 -7 -15 -10 -25 -7
-9 4 -14 3 -10 -3 3 -6 -3 -10 -14 -10 -12 0 -21 -5 -21 -11 0 -5 -4 -7 -10
-4 -5 3 -10 0 -10 -7 0 -9 -3 -9 -10 2 -6 10 -10 11 -10 3 0 -7 -7 -13 -16
-13 -8 0 -13 -4 -9 -9 3 -6 -4 -8 -15 -6 -11 2 -20 0 -20 -6 0 -5 -7 -9 -15
-9 -8 0 -15 -6 -15 -12 0 -10 -2 -10 -9 0 -6 11 -10 10 -15 -3 -3 -10 -12 -15
-21 -11 -8 3 -15 1 -15 -4 0 -6 -7 -10 -15 -10 -8 0 -15 -5 -15 -12 0 -6 -3
-8 -7 -5 -3 4 -13 1 -21 -6 -13 -10 -15 -9 -8 3 6 12 5 11 -6 -1 -7 -9 -23
-15 -35 -14 -18 1 -20 -1 -12 -11 8 -10 6 -12 -10 -9 -12 2 -21 0 -21 -4 0 -5
-11 -12 -25 -15 -17 -4 -23 -11 -18 -19 5 -9 3 -9 -9 1 -12 10 -17 10 -27 -1
-6 -8 -8 -16 -6 -19 3 -3 -2 -5 -12 -5 -31 0 -63 -15 -56 -26 4 -6 -4 -8 -20
-5 -15 3 -25 2 -23 -1 1 -3 -5 -14 -16 -23 -12 -12 -18 -14 -18 -5 0 8 -3 8
-9 -2 -5 -8 -16 -11 -25 -8 -8 3 -18 1 -22 -5 -5 -7 -2 -8 7 -4 8 4 5 1 -5 -8
-10 -8 -23 -13 -27 -10 -5 3 -9 -2 -9 -11 0 -9 -4 -14 -9 -10 -11 6 -62 -15
-56 -24 2 -4 -6 -8 -17 -8 -11 -1 -31 -12 -44 -24 -13 -12 -24 -19 -24 -15 0
5 -6 3 -13 -3 -8 -6 -18 -7 -22 -3 -5 4 -5 -2 -1 -13 4 -11 4 -16 0 -13 -8 9
-84 -29 -84 -42 0 -5 -6 -7 -14 -4 -8 3 -17 0 -21 -5 -3 -6 -11 -8 -17 -5 -7
5 -8 2 -3 -6 6 -10 4 -12 -8 -7 -9 3 -19 1 -23 -5 -5 -7 -2 -8 6 -3 9 5 11 4
6 -3 -4 -7 -14 -12 -22 -12 -9 0 -12 -5 -8 -12 5 -7 3 -8 -5 -4 -7 5 -21 0
-32 -10 -10 -9 -19 -13 -19 -9 0 5 -6 1 -13 -10 -8 -10 -19 -15 -25 -11 -7 4
-12 1 -12 -8 0 -9 -6 -16 -14 -16 -8 0 -22 -7 -30 -16 -9 -8 -16 -12 -16 -8 0
4 -9 -3 -20 -16 -12 -14 -20 -18 -20 -9 0 8 -7 4 -16 -9 -9 -14 -22 -21 -31
-18 -8 3 -12 2 -9 -3 7 -11 -22 -23 -35 -16 -5 4 -6 -1 -3 -9 4 -10 1 -16 -9
-16 -8 0 -20 -7 -27 -15 -7 -9 -19 -14 -27 -11 -8 3 -11 1 -8 -4 3 -6 -1 -10
-9 -10 -9 0 -16 -3 -16 -8 0 -4 -18 -18 -40 -32 -22 -14 -40 -28 -40 -33 0 -4
-4 -5 -10 -2 -5 3 -10 -1 -10 -10 0 -9 -4 -14 -10 -10 -5 3 -18 -3 -29 -14
-11 -11 -22 -17 -24 -14 -3 2 -10 -5 -17 -16 -6 -12 -16 -21 -23 -21 -7 0 -27
-12 -44 -26 -18 -14 -33 -24 -35 -22 -7 6 -36 -27 -30 -36 3 -5 0 -6 -6 -2 -6
3 -13 2 -17 -4 -4 -6 -11 -7 -17 -4 -7 4 -8 2 -4 -4 4 -8 -3 -16 -18 -22 -14
-5 -26 -14 -26 -20 0 -5 -7 -10 -15 -10 -8 0 -14 -3 -12 -7 1 -5 -2 -9 -6 -10
-5 -1 -15 -10 -24 -20 -8 -10 -11 -11 -7 -3 4 8 -4 4 -18 -10 -44 -44 -92 -80
-105 -80 -7 0 -13 -7 -13 -16 0 -8 -4 -12 -10 -9 -5 3 -15 -3 -22 -15 -7 -11
-21 -20 -31 -20 -11 0 -17 -6 -15 -17 2 -12 -3 -18 -14 -17 -10 1 -18 -4 -18
-11 0 -13 -28 -30 -43 -26 -5 1 -6 -3 -3 -7 8 -13 -30 -45 -44 -37 -6 3 -10 3
-9 -2 3 -20 -2 -34 -11 -28 -5 3 -10 -1 -10 -10 0 -9 -4 -14 -9 -10 -6 3 -28
-13 -51 -35 -22 -22 -45 -40 -51 -40 -6 0 -7 -4 -4 -10 3 -5 2 -10 -4 -10 -6
0 -30 -20 -55 -44 -24 -25 -47 -42 -52 -38 -4 4 -4 -1 -1 -11 4 -11 3 -16 -3
-12 -6 4 -22 -8 -36 -24 -14 -17 -31 -28 -36 -24 -7 3 -8 1 -4 -5 3 -6 -3 -16
-14 -22 -11 -6 -18 -15 -15 -21 4 -5 3 -9 -2 -8 -4 1 -15 1 -23 0 -13 -1 -13
-2 0 -11 12 -8 12 -10 1 -10 -7 0 -24 -12 -37 -26 -13 -14 -29 -22 -34 -19 -6
4 -10 3 -9 -2 4 -16 -13 -43 -27 -43 -8 0 -13 -3 -12 -7 2 -5 -30 -41 -70 -81
-39 -40 -72 -78 -72 -83 0 -6 -3 -8 -7 -6 -5 2 -16 -4 -25 -15 -10 -10 -15
-18 -11 -18 3 0 -5 -9 -18 -21 -13 -12 -23 -25 -22 -30 2 -4 -5 -5 -14 -2 -13
5 -15 2 -10 -11 4 -9 3 -15 -2 -12 -5 3 -15 -2 -22 -11 -12 -14 -12 -16 1 -8
8 4 6 -1 -5 -12 -11 -11 -23 -19 -27 -16 -5 2 -8 -3 -8 -11 0 -8 -9 -20 -20
-26 -11 -6 -20 -15 -20 -21 0 -14 -62 -75 -73 -71 -4 1 -6 -2 -3 -7 4 -5 0
-16 -8 -24 -8 -8 -12 -17 -9 -21 4 -3 -1 -6 -10 -6 -9 0 -17 -5 -17 -11 0 -5
-4 -7 -10 -4 -6 4 -7 -1 -3 -11 4 -12 3 -15 -5 -10 -7 4 -12 1 -12 -7 0 -8 -7
-20 -15 -27 -8 -7 -12 -17 -8 -24 4 -6 -1 -4 -11 3 -16 13 -17 13 -14 -1 1
-10 -6 -24 -17 -33 -11 -9 -13 -14 -5 -10 8 4 6 -2 -5 -12 -11 -10 -28 -31
-38 -46 -10 -15 -22 -25 -27 -22 -6 4 -7 -1 -3 -11 5 -13 3 -15 -7 -9 -10 6
-12 4 -7 -9 4 -10 3 -15 -3 -11 -6 3 -10 2 -10 -3 0 -5 -15 -24 -33 -43 -17
-19 -33 -41 -35 -49 -2 -8 -11 -21 -20 -28 -9 -7 -16 -17 -15 -22 2 -5 -6 -14
-17 -20 -11 -6 -18 -15 -15 -20 3 -5 -3 -13 -12 -19 -10 -6 -14 -11 -10 -11 4
0 -5 -12 -20 -26 -15 -15 -21 -23 -13 -18 9 5 5 0 -8 -12 -12 -11 -24 -30 -25
-42 -1 -17 -4 -19 -17 -9 -8 6 -12 8 -8 3 4 -5 2 -18 -4 -30 -7 -11 -11 -25
-10 -29 1 -5 -1 -6 -5 -4 -10 6 -34 -19 -26 -27 3 -3 -2 -8 -11 -12 -9 -3 -13
-10 -10 -15 3 -5 0 -9 -7 -9 -7 0 -10 -3 -6 -6 3 -3 -3 -16 -14 -27 -11 -12
-17 -27 -15 -34 3 -8 -1 -10 -11 -6 -11 4 -14 2 -9 -5 4 -7 2 -12 -4 -12 -6 0
-8 -5 -4 -12 5 -8 2 -9 -11 -4 -15 5 -16 4 -5 -9 9 -11 9 -15 1 -15 -6 0 -16
-12 -21 -26 -6 -14 -14 -23 -18 -20 -5 3 -8 -5 -8 -17 1 -13 -4 -21 -11 -19
-7 1 -13 -2 -13 -8 0 -20 -3 -25 -22 -39 -11 -7 -17 -19 -14 -26 2 -7 -2 -16
-10 -19 -8 -3 -14 -11 -14 -17 0 -7 -8 -18 -18 -26 -9 -8 -11 -11 -4 -8 11 6
11 3 0 -14 -7 -12 -16 -21 -19 -21 -6 0 -21 -34 -23 -55 -1 -6 -11 -22 -24
-35 -12 -13 -22 -30 -22 -37 0 -7 -4 -13 -8 -13 -5 0 -14 -16 -22 -35 -8 -19
-17 -35 -22 -35 -4 0 -8 -7 -8 -15 0 -8 -4 -15 -10 -15 -5 0 -10 -7 -10 -16 0
-8 -4 -12 -10 -9 -6 4 -7 -1 -3 -11 5 -13 3 -15 -8 -9 -12 8 -12 6 0 -8 11
-14 11 -18 -3 -23 -9 -3 -16 -13 -16 -20 0 -8 -6 -17 -14 -20 -8 -3 -12 -12
-9 -20 3 -7 -2 -17 -11 -20 -12 -5 -14 -10 -6 -19 8 -10 5 -17 -12 -29 -12 -9
-18 -16 -13 -16 6 0 2 -5 -8 -11 -9 -6 -15 -15 -11 -20 3 -6 -5 -22 -17 -36
-13 -15 -18 -23 -11 -18 11 6 12 3 3 -13 -6 -12 -16 -24 -21 -27 -6 -4 -8 -11
-5 -16 4 -5 2 -9 -4 -9 -5 0 -13 -10 -17 -22 -4 -13 -12 -26 -18 -30 -8 -6 -7
-8 1 -8 9 0 7 -7 -5 -20 -9 -12 -18 -24 -18 -28 -6 -27 -18 -52 -27 -52 -6 0
-7 -3 -4 -7 4 -3 -1 -15 -10 -26 -10 -11 -13 -18 -7 -14 6 3 11 0 11 -7 0 -8
-6 -12 -14 -9 -9 4 -11 0 -6 -13 5 -13 3 -15 -8 -9 -11 7 -11 5 1 -10 9 -11
10 -16 3 -11 -12 6 -18 -5 -14 -26 0 -5 -4 -8 -10 -8 -6 0 -9 -7 -5 -15 3 -9
-3 -19 -17 -26 -21 -12 -21 -12 -2 -20 17 -6 17 -8 3 -8 -16 -1 -23 -12 -19
-33 0 -5 -3 -8 -9 -8 -5 0 -10 -7 -10 -15 0 -18 -20 -57 -35 -67 -6 -5 -6 -8
2 -8 7 0 5 -14 -8 -40 -10 -21 -19 -46 -19 -54 0 -8 -5 -16 -11 -18 -5 -2 -12
-12 -14 -23 -2 -11 -4 -22 -5 -25 -1 -3 -2 -8 -1 -12 0 -5 -4 -8 -10 -8 -5 0
-7 -4 -4 -10 3 -5 1 -10 -5 -10 -7 0 -10 -7 -6 -15 3 -8 0 -15 -7 -15 -8 0 -6
-4 3 -10 12 -8 12 -10 -5 -10 -17 0 -17 -2 -5 -10 10 -6 11 -10 2 -10 -6 0
-11 -6 -10 -12 2 -7 -2 -12 -8 -11 -6 1 -10 -9 -8 -22 1 -14 -2 -25 -8 -25 -6
0 -7 -7 -4 -15 3 -9 -1 -18 -9 -22 -13 -4 -13 -8 -3 -21 9 -11 9 -13 1 -9 -6
4 -14 3 -18 -3 -3 -5 -1 -10 6 -10 10 0 10 -3 1 -12 -7 -7 -12 -20 -12 -30 0
-10 -3 -18 -8 -18 -4 0 -12 -16 -18 -35 -8 -24 -8 -32 0 -28 6 4 3 -3 -7 -15
-11 -11 -16 -25 -13 -31 4 -5 2 -12 -4 -16 -5 -3 -10 -17 -10 -31 0 -14 -4
-23 -9 -19 -6 3 -8 -4 -6 -15 2 -11 1 -20 -3 -20 -4 0 -8 -8 -9 -17 -1 -10 -7
-31 -14 -48 -13 -32 -19 -60 -20 -87 0 -10 -4 -20 -10 -23 -5 -4 -9 -17 -9
-31 0 -13 -4 -24 -8 -24 -4 0 -8 -8 -9 -17 -3 -45 -8 -63 -16 -63 -5 0 -7 -7
-3 -15 3 -8 0 -15 -7 -15 -8 0 -8 -3 2 -9 9 -6 10 -11 2 -15 -6 -4 -8 -12 -5
-18 5 -8 1 -9 -10 -5 -14 5 -15 3 -6 -13 6 -11 6 -21 1 -24 -5 -4 -8 -14 -7
-24 2 -9 -1 -19 -5 -22 -5 -4 -10 -23 -11 -43 -2 -20 -6 -37 -9 -37 -4 0 -6
-10 -5 -22 1 -13 -2 -26 -7 -29 -4 -3 -9 -20 -9 -37 -1 -18 -6 -32 -12 -32 -6
0 -4 -5 4 -10 12 -8 12 -10 1 -10 -8 0 -11 -3 -8 -7 4 -3 2 -12 -4 -20 -9 -10
-8 -13 0 -13 8 0 7 -6 -4 -16 -11 -12 -13 -20 -5 -29 7 -9 6 -16 -5 -25 -8 -7
-12 -16 -9 -21 3 -5 -1 -22 -9 -38 -9 -19 -11 -34 -5 -45 6 -10 5 -16 -1 -16
-5 0 -8 -11 -6 -25 1 -14 -2 -25 -8 -25 -5 0 -3 -8 4 -17 8 -10 9 -14 2 -10
-7 5 -12 1 -11 -10 0 -27 -10 -81 -17 -93 -3 -5 -1 -10 6 -10 7 0 4 -7 -7 -16
-10 -8 -13 -12 -5 -8 10 5 12 3 5 -7 -5 -8 -9 -22 -10 -31 -1 -10 -2 -19 -3
-20 -4 -5 -13 -73 -14 -100 0 -16 -5 -28 -9 -28 -5 0 -5 -8 1 -17 6 -12 5 -26
-5 -45 -10 -19 -11 -28 -3 -28 8 0 8 -4 -1 -15 -10 -12 -10 -15 1 -15 9 0 10
-3 4 -8 -6 -4 -12 -20 -14 -37 -1 -16 -4 -39 -5 -50 -1 -11 -4 -24 -7 -30 -3
-5 -5 -34 -5 -62 1 -29 -1 -53 -4 -53 -3 0 -5 -19 -4 -42 0 -24 -4 -46 -10
-50 -7 -5 -6 -8 3 -8 11 0 11 -3 0 -17 -12 -15 -12 -16 1 -8 13 8 13 7 1 -8
-11 -14 -11 -17 0 -17 9 0 10 -3 4 -8 -6 -4 -12 -34 -13 -66 -2 -33 -8 -67
-15 -75 -9 -12 -9 -13 1 -7 7 4 12 1 12 -9 0 -10 -5 -13 -12 -9 -10 6 -10 5
-1 -7 10 -12 10 -18 1 -27 -9 -9 -9 -12 1 -12 7 0 9 -5 6 -10 -12 -20 -15 -71
-3 -64 7 5 8 2 3 -6 -13 -21 -13 -84 -1 -99 8 -11 8 -13 -1 -8 -16 10 -15 -62
1 -82 9 -12 8 -13 -3 -6 -11 6 -13 1 -9 -23 2 -17 0 -34 -6 -36 -7 -3 -6 -5 2
-5 6 -1 12 -6 12 -12 0 -5 -6 -7 -12 -3 -9 5 -9 2 1 -9 9 -12 10 -17 2 -17 -9
0 -9 -5 -1 -20 7 -14 7 -20 0 -20 -5 0 -10 -5 -10 -11 0 -5 4 -7 10 -4 10 6 3
-22 -11 -40 -4 -6 -1 -19 6 -29 11 -14 12 -24 3 -39 -9 -17 -8 -19 8 -13 18 6
18 5 2 -7 -10 -8 -15 -16 -12 -19 3 -4 7 -22 9 -42 2 -25 -1 -34 -8 -30 -8 4
-7 2 1 -7 14 -15 17 -43 3 -35 -4 3 -6 -6 -3 -19 2 -15 9 -22 16 -18 8 5 8 3
0 -8 -6 -8 -9 -50 -7 -99 2 -47 4 -94 4 -105 0 -11 5 -23 12 -27 9 -6 9 -8 -1
-8 -8 0 -11 -7 -7 -19 3 -10 6 -36 7 -57 1 -22 6 -42 12 -46 7 -5 6 -8 -3 -8
-11 0 -11 -3 -1 -15 10 -12 10 -15 0 -15 -9 0 -9 -4 1 -17 12 -15 12 -16 -1
-8 -12 7 -13 6 -4 -6 6 -8 12 -40 12 -72 0 -33 6 -65 13 -74 8 -10 9 -14 2
-10 -15 9 -11 -29 6 -62 8 -14 9 -21 2 -17 -7 5 -11 -1 -11 -14 0 -12 4 -18
10 -15 7 4 7 -2 0 -19 -6 -17 -6 -27 2 -32 7 -5 8 -3 3 6 -6 9 -4 11 4 6 9 -6
8 -13 -6 -29 -10 -11 -13 -17 -6 -14 14 9 27 -9 13 -18 -7 -4 -6 -13 1 -28 7
-12 12 -40 13 -63 1 -23 4 -46 8 -50 4 -4 3 -13 -3 -21 -6 -7 -7 -13 -2 -13 5
0 10 -12 11 -26 1 -15 6 -32 12 -39 6 -7 6 -15 -2 -23 -9 -9 -9 -12 1 -12 11
0 11 -3 0 -17 -8 -10 -9 -14 -2 -10 6 4 14 3 18 -3 3 -5 0 -10 -7 -10 -8 0 -9
-3 -3 -8 6 -4 10 -19 10 -34 -1 -16 2 -28 6 -28 3 0 6 -8 6 -17 0 -52 3 -64
15 -57 10 6 10 5 1 -7 -10 -12 -10 -18 0 -29 10 -10 9 -11 -1 -5 -11 6 -12 3
-3 -14 7 -11 10 -21 7 -21 -3 0 1 -12 9 -27 10 -20 11 -31 3 -40 -8 -9 -7 -13
2 -13 7 0 10 -7 6 -15 -3 -8 -1 -15 4 -15 5 0 7 -7 4 -15 -4 -8 -1 -15 6 -15
10 0 10 -3 0 -15 -11 -13 -7 -19 11 -17 3 1 5 -17 4 -38 -1 -22 1 -38 4 -35 4
2 8 -5 9 -16 1 -10 2 -27 3 -36 1 -10 7 -24 13 -32 8 -11 8 -13 -2 -7 -7 4 -4
-8 7 -27 14 -26 16 -38 8 -46 -8 -8 -8 -11 2 -11 7 0 11 -10 9 -24 -1 -13 4
-31 12 -42 13 -16 13 -17 0 -9 -12 7 -13 6 -3 -7 7 -8 14 -27 15 -42 1 -14 6
-26 11 -26 4 0 6 -4 2 -9 -3 -5 -1 -12 5 -16 6 -4 8 -11 4 -16 -3 -6 1 -18 9
-27 8 -9 13 -26 11 -36 -1 -11 0 -25 4 -30 3 -6 8 -20 9 -30 2 -11 9 -26 16
-35 10 -12 9 -13 -1 -7 -11 6 -11 4 -3 -10 14 -28 24 -58 22 -68 -1 -4 6 -20
15 -33 9 -14 11 -22 4 -18 -7 4 -5 -3 3 -16 9 -13 16 -27 17 -31 1 -14 11 -43
21 -62 8 -14 7 -16 -2 -11 -14 9 -5 -9 20 -39 9 -11 10 -16 4 -12 -7 4 -13 2
-13 -3 0 -6 5 -11 11 -11 6 0 9 -8 6 -19 -2 -11 3 -24 14 -32 21 -15 26 -35 7
-23 -10 6 -10 5 -1 -8 7 -8 10 -18 6 -21 -3 -4 -2 -7 3 -7 5 0 11 -12 12 -27
1 -16 7 -29 12 -31 6 -2 10 -14 10 -27 0 -12 7 -26 16 -29 8 -3 13 -10 9 -16
-3 -5 -1 -19 5 -30 6 -12 13 -31 15 -42 3 -12 9 -24 15 -28 6 -4 8 -14 4 -23
-3 -9 -2 -17 3 -17 4 0 14 -9 21 -21 8 -12 9 -18 3 -14 -8 4 -7 -2 1 -19 6
-14 15 -26 20 -26 4 0 8 -5 8 -11 0 -5 -4 -8 -8 -5 -4 3 1 -15 12 -39 11 -24
25 -41 31 -37 5 3 3 -3 -5 -13 -9 -11 -10 -16 -2 -11 8 5 12 -1 12 -19 0 -15
4 -24 10 -20 9 5 15 -24 11 -48 -1 -5 3 -6 9 -2 5 3 10 -3 10 -14 0 -12 5 -21
11 -21 5 0 8 -4 4 -9 -3 -5 2 -17 11 -25 8 -9 12 -16 8 -16 -3 0 -1 -6 5 -13
6 -8 8 -17 4 -20 -3 -4 -2 -7 3 -7 5 0 10 -10 11 -21 1 -12 9 -29 17 -38 8 -9
16 -23 18 -31 2 -8 10 -21 18 -28 8 -8 10 -11 3 -8 -8 5 -8 0 0 -19 7 -14 16
-25 20 -25 5 0 6 -4 2 -9 -3 -5 2 -16 10 -24 8 -9 15 -20 15 -26 0 -6 5 -11
11 -11 8 0 8 -5 -1 -15 -10 -12 -9 -15 6 -15 17 -1 16 -3 -5 -20 -12 -11 -27
-17 -32 -14 -5 3 -9 0 -9 -6 0 -6 -5 -8 -10 -5 -6 4 -9 1 -8 -7 2 -8 -6 -13
-19 -12 -12 0 -20 -3 -17 -8 3 -4 0 -8 -6 -8 -6 0 -20 -9 -32 -20 -12 -10 -24
-17 -28 -15 -5 3 -11 -2 -14 -11 -3 -8 -10 -12 -16 -9 -5 3 -10 1 -10 -4 0 -6
-9 -11 -21 -11 -11 0 -18 -3 -15 -8 2 -4 -9 -15 -25 -25 -17 -9 -27 -12 -23
-5 4 7 3 8 -4 4 -7 -4 -12 -15 -12 -24 0 -12 -3 -13 -8 -5 -6 9 -13 5 -26 -12
-16 -21 -21 -23 -34 -13 -9 7 -13 9 -10 3 3 -5 0 -16 -8 -23 -8 -7 -14 -10
-14 -5 0 4 -7 -2 -15 -13 -8 -10 -15 -15 -15 -10 0 5 -9 1 -20 -9 -11 -10 -20
-14 -20 -10 0 4 -8 -1 -18 -12 -9 -11 -23 -18 -31 -15 -8 3 -11 0 -7 -7 4 -6
0 -11 -11 -11 -20 -1 -55 -24 -47 -32 2 -3 -2 -8 -11 -12 -9 -3 -14 -2 -11 2
3 5 -1 9 -9 9 -8 0 -12 -4 -10 -8 8 -11 -23 -31 -36 -23 -7 4 -9 3 -5 -4 3 -6
-3 -13 -14 -17 -11 -3 -20 -11 -20 -16 0 -5 -5 -9 -10 -9 -6 0 -29 -12 -53
-27 -23 -15 -45 -26 -49 -25 -5 1 -8 -3 -8 -8 0 -6 -7 -10 -15 -10 -8 0 -15
-7 -15 -15 0 -9 -6 -12 -15 -9 -8 4 -15 1 -15 -5 0 -6 -3 -10 -7 -10 -18 3
-36 -2 -30 -7 3 -4 2 -15 -3 -25 -6 -10 -6 -19 -1 -21 5 -2 11 -14 13 -28 1
-14 6 -28 10 -31 5 -3 9 -17 10 -32 1 -15 6 -27 10 -27 4 0 8 -11 8 -24 0 -13
5 -26 12 -28 6 -2 11 -18 10 -36 0 -18 3 -32 8 -32 4 0 11 -7 14 -16 3 -8 2
-12 -4 -9 -6 3 -10 1 -10 -4 0 -6 5 -11 11 -11 5 0 7 -4 4 -10 -3 -5 -1 -10 4
-10 6 0 11 -5 11 -11 0 -5 -6 -7 -12 -4 -7 4 -5 0 6 -9 10 -8 16 -22 13 -29
-3 -8 3 -24 14 -36 13 -14 15 -21 7 -21 -10 0 -10 -2 -1 -8 7 -5 14 -20 15
-35 1 -15 6 -27 10 -27 4 0 8 -5 8 -11 0 -5 -6 -7 -12 -4 -7 4 -5 0 4 -8 10
-8 15 -17 12 -20 -4 -3 3 -26 15 -50 11 -24 21 -53 21 -65 0 -12 4 -22 9 -22
5 0 11 -9 14 -20 3 -13 1 -18 -6 -13 -7 4 -6 -1 2 -10 7 -9 11 -24 7 -32 -3
-9 -2 -13 4 -10 9 5 15 -24 11 -48 -1 -5 3 -6 9 -2 6 4 10 -4 10 -19 0 -14 5
-28 11 -32 6 -3 9 -17 6 -30 -3 -16 0 -24 9 -24 8 0 14 -7 14 -16 0 -9 -5 -13
-12 -9 -7 4 -6 1 3 -7 9 -7 15 -21 13 -30 -1 -10 2 -18 7 -18 6 0 8 -4 4 -9
-3 -5 2 -16 10 -24 17 -18 20 -31 4 -22 -9 6 8 -32 21 -45 5 -5 8 -23 13 -67
1 -13 8 -25 16 -28 7 -3 11 -12 7 -20 -3 -8 -1 -17 5 -20 5 -4 7 -10 4 -15 -3
-5 2 -16 11 -24 11 -11 12 -16 3 -16 -10 0 -10 -3 -1 -12 7 -7 12 -21 12 -31
0 -11 8 -26 18 -34 16 -14 16 -14 -2 -8 -19 6 -19 5 -2 -14 10 -11 15 -25 11
-30 -3 -6 -2 -11 3 -11 11 0 24 -36 24 -67 1 -14 7 -23 16 -23 12 0 12 -3 2
-15 -10 -12 -10 -15 0 -15 7 0 10 -7 6 -16 -3 -9 -2 -12 5 -8 6 4 10 -1 8 -12
-1 -11 3 -30 8 -44 6 -14 9 -28 6 -32 -2 -5 1 -8 6 -8 6 0 11 -11 11 -25 0
-14 4 -25 10 -25 5 0 9 -3 9 -7 -5 -29 2 -53 13 -47 10 6 10 4 0 -8 -9 -11 -9
-17 -2 -20 6 -2 12 -13 13 -26 0 -12 5 -22 9 -22 4 0 5 -7 2 -15 -4 -8 -1 -15
6 -15 6 0 9 -4 6 -9 -3 -5 1 -14 9 -21 7 -6 11 -18 8 -26 -3 -8 0 -21 7 -29 6
-8 9 -19 5 -25 -3 -5 -2 -10 3 -10 6 0 8 -10 4 -22 -3 -14 -2 -19 6 -14 8 5
12 -1 12 -16 0 -13 7 -36 15 -51 9 -19 10 -25 2 -21 -7 4 -1 -5 13 -21 14 -16
20 -25 14 -22 -7 4 -14 0 -17 -8 -4 -9 -1 -12 8 -9 10 4 12 0 8 -15 -3 -12 -1
-21 5 -21 5 0 13 -7 16 -16 3 -8 2 -13 -3 -10 -5 4 -7 -3 -4 -14 3 -11 9 -20
12 -20 4 0 8 -7 9 -15 1 -8 3 -22 4 -30 1 -8 6 -15 11 -15 5 0 7 -9 4 -20 -3
-11 -1 -22 4 -26 5 -3 14 -15 21 -27 11 -21 10 -21 -8 -7 -14 12 -13 8 4 -14
15 -20 19 -32 11 -36 -7 -5 -5 -9 5 -13 9 -4 13 -13 10 -21 -3 -8 -1 -17 5
-21 6 -3 11 -17 11 -31 0 -13 5 -24 10 -24 6 0 10 -10 10 -23 0 -13 6 -29 13
-36 6 -8 7 -11 1 -8 -6 3 -11 0 -11 -8 0 -8 4 -12 8 -10 9 6 21 -24 13 -36 -3
-5 -1 -9 4 -9 5 0 9 -6 10 -12 2 -25 8 -48 15 -54 4 -4 7 -16 7 -26 0 -10 4
-18 8 -18 4 0 9 -11 10 -25 2 -33 6 -49 12 -55 13 -13 30 -51 21 -45 -6 3 -11
1 -11 -4 0 -6 5 -11 12 -11 6 0 8 -3 5 -7 -4 -3 -2 -12 4 -19 6 -7 13 -28 16
-46 3 -18 8 -35 11 -38 4 -3 8 -13 10 -22 1 -10 3 -26 5 -35 1 -10 5 -20 8
-23 10 -9 38 -88 33 -93 -3 -2 4 -21 16 -42 11 -20 16 -34 11 -31 -12 8 11
-57 24 -66 6 -4 6 -8 1 -8 -5 0 -4 -6 3 -13 6 -8 9 -23 6 -35 -2 -11 3 -26 11
-32 7 -7 11 -16 8 -21 -3 -5 0 -9 7 -9 8 0 7 -5 -2 -17 -10 -11 -10 -14 -1 -9
6 4 13 2 13 -3 1 -6 2 -14 4 -18 14 -53 20 -70 31 -92 7 -13 11 -28 8 -33 -3
-4 -1 -8 5 -8 6 0 8 -7 5 -15 -4 -9 0 -15 7 -15 11 0 11 -2 -1 -10 -13 -8 -12
-11 4 -23 11 -8 16 -19 12 -25 -3 -6 0 -16 7 -24 8 -7 13 -21 12 -29 -4 -23
11 -43 26 -37 8 3 17 6 22 7 4 0 17 10 29 21 12 11 28 18 36 15 7 -2 11 -1 8
4 -7 11 22 23 36 14 6 -3 8 -2 5 4 -4 6 11 19 33 29 22 10 40 23 40 27 0 5 5
5 10 2 5 -3 10 -1 10 6 0 7 3 10 6 6 4 -3 13 1 21 9 8 8 19 12 24 9 5 -4 9 -2
9 4 0 6 7 8 15 5 11 -5 13 -2 9 10 -4 12 -2 15 9 10 10 -3 20 2 27 15 6 11 14
20 18 20 4 -1 10 0 15 1 10 4 26 7 35 9 5 0 22 12 38 26 16 14 37 25 47 25 9
0 17 5 17 11 0 5 5 7 10 4 6 -3 10 -1 10 5 0 6 4 8 10 5 5 -3 10 -2 10 4 0 5
10 13 22 17 13 4 29 14 36 23 11 13 12 13 7 1 -4 -10 -2 -9 8 3 15 18 32 24
22 7 -3 -6 1 -7 10 -4 9 4 14 13 11 21 -3 8 -2 12 3 9 5 -3 21 4 37 16 15 13
24 16 19 8 -5 -9 1 -7 14 4 12 11 28 21 36 22 8 1 22 9 31 18 8 9 20 16 25 16
18 0 24 3 35 18 6 8 16 12 21 9 6 -4 13 0 17 8 3 8 15 15 26 15 11 0 23 7 26
15 4 8 10 12 15 9 5 -3 9 0 9 5 0 6 9 11 20 11 11 0 20 5 20 11 0 5 4 8 9 5 5
-3 12 1 15 10 4 9 9 14 13 11 3 -4 12 1 20 11 8 9 12 11 8 5 -4 -9 -1 -11 9
-7 9 3 13 11 9 17 -4 6 0 8 10 4 10 -4 20 0 26 11 6 9 11 13 11 9 0 -4 20 6
44 22 31 22 46 27 49 18 4 -8 6 -7 6 3 1 8 28 28 61 43 33 16 62 33 66 38 3 5
10 7 15 4 5 -4 9 -1 9 4 0 6 6 11 14 11 7 0 25 11 40 25 29 27 41 32 30 12 -4
-6 2 -4 14 6 11 11 25 16 31 13 5 -4 15 3 21 14 6 11 17 20 25 20 8 0 15 5 15
10 0 6 9 10 20 10 11 0 20 5 20 11 0 5 5 7 10 4 6 -3 10 -1 10 4 0 6 7 11 16
11 8 0 12 4 9 10 -3 6 1 7 9 4 9 -3 16 -1 16 6 0 6 5 8 10 5 6 -3 10 -1 10 5
0 6 5 8 10 5 6 -3 10 -1 10 5 0 6 4 9 9 6 5 -3 12 1 15 10 4 9 13 14 21 10 10
-3 15 1 15 12 0 13 2 14 9 3 7 -11 10 -11 17 2 11 18 107 71 99 54 -3 -7 2 -2
11 10 9 13 25 23 35 23 11 0 19 5 19 11 0 5 5 7 10 4 6 -3 10 -1 10 5 0 6 5 8
10 5 6 -3 10 -1 10 4 0 6 5 11 11 11 7 0 18 8 26 17 8 10 12 12 8 6 -3 -7 -1
-13 4 -13 6 0 11 5 11 11 0 5 14 15 30 20 17 6 30 15 30 19 0 5 9 7 20 5 11
-2 18 0 15 6 -4 5 -1 9 5 9 6 0 9 4 6 9 -4 5 4 7 16 3 14 -3 19 -1 14 6 -3 6
6 13 25 17 17 4 33 13 36 21 3 8 9 11 14 8 5 -3 9 0 9 6 0 7 7 10 15 6 10 -3
15 1 15 12 0 15 2 15 10 2 8 -13 10 -13 10 1 0 12 7 15 25 11 14 -2 25 -9 25
-15 0 -6 3 -7 7 -4 3 4 12 -2 20 -13 8 -11 20 -20 27 -20 7 0 25 -11 40 -25
14 -13 29 -25 31 -25 3 0 12 0 20 0 8 0 15 -7 15 -16 0 -8 5 -12 10 -9 6 3 10
1 10 -5 0 -6 5 -8 10 -5 6 3 13 -1 16 -10 6 -13 8 -14 15 -3 7 10 9 9 9 -4 0
-10 6 -18 14 -18 8 0 17 -7 20 -16 3 -9 13 -14 20 -11 8 3 17 -1 20 -9 3 -8
12 -14 21 -14 8 0 15 -5 15 -11 0 -5 4 -7 10 -4 6 3 10 -2 10 -12 0 -14 2 -15
9 -4 7 11 10 9 15 -7 4 -13 13 -19 22 -15 7 3 14 0 14 -6 0 -6 7 -11 16 -11 9
0 12 -5 8 -12 -4 -6 -3 -8 4 -4 6 3 16 0 24 -7 7 -8 19 -12 27 -9 8 3 11 0 7
-7 -5 -7 1 -11 13 -11 12 0 21 -5 21 -11 0 -5 4 -8 9 -5 5 3 11 -1 15 -9 3 -8
15 -15 26 -15 11 0 20 -4 20 -10 0 -5 7 -10 15 -10 8 0 15 -5 15 -11 0 -5 4
-8 9 -4 6 3 14 -3 20 -12 6 -11 11 -13 11 -5 0 10 3 10 14 0 8 -7 12 -16 10
-20 -2 -3 4 -5 13 -4 10 2 24 -6 32 -16 8 -12 21 -18 32 -15 11 3 17 1 13 -4
-3 -5 1 -9 9 -9 8 0 20 -7 27 -15 7 -8 16 -12 21 -9 5 3 9 0 9 -6 0 -6 4 -8
10 -5 6 3 10 1 10 -5 0 -6 4 -9 9 -6 5 3 14 -1 21 -9 7 -8 16 -12 21 -9 5 3 9
0 9 -6 0 -6 4 -9 9 -5 6 3 14 -3 20 -12 8 -13 10 -14 11 -4 0 11 4 9 15 -5 8
-10 15 -15 15 -11 0 5 7 1 16 -8 9 -9 21 -14 27 -12 7 2 20 -5 31 -15 11 -10
26 -18 33 -18 8 0 11 -5 7 -11 -4 -8 0 -8 15 0 17 9 21 9 19 -1 -2 -7 3 -12
10 -11 6 2 12 -2 12 -8 0 -5 4 -7 10 -4 5 3 10 1 10 -5 0 -7 7 -10 15 -6 8 3
15 2 15 -2 0 -9 88 -47 103 -44 4 1 7 -6 8 -16 0 -10 3 -12 6 -4 3 9 13 6 36
-10 18 -13 41 -23 52 -23 28 -1 47 -14 38 -28 -4 -7 2 -5 12 3 15 12 17 12 10
1 -6 -11 -4 -13 8 -8 9 3 17 2 19 -4 2 -5 14 -11 27 -14 14 -2 28 -10 33 -17
4 -7 8 -9 8 -4 0 5 10 1 22 -10 12 -10 18 -13 14 -6 -4 6 -2 12 3 12 6 0 11
-4 11 -8 0 -5 6 -9 13 -9 19 -2 81 -27 88 -36 3 -5 9 -8 13 -8 19 3 27 0 22
-7 -3 -5 1 -9 9 -9 8 0 11 5 8 11 -4 6 3 3 14 -7 11 -9 23 -14 26 -10 4 3 7 1
7 -6 0 -7 4 -10 8 -7 5 3 21 -2 36 -10 16 -7 35 -14 42 -14 8 0 14 -4 14 -10
0 -5 10 -10 23 -10 13 0 29 -6 36 -12 10 -9 12 -9 7 -1 -4 7 4 6 24 -3 16 -9
35 -12 41 -8 8 4 9 3 5 -4 -5 -8 2 -12 18 -12 14 0 26 -4 26 -8 0 -4 12 -9 27
-10 15 -1 30 -8 35 -15 4 -6 8 -8 8 -3 0 5 8 2 17 -5 11 -10 14 -10 9 -1 -10
17 0 15 19 -5 13 -12 19 -13 25 -4 5 10 9 9 13 -3 4 -9 10 -16 14 -15 4 1 10
1 13 -1 3 -1 16 -4 30 -6 13 -2 27 -8 30 -13 3 -4 18 -7 34 -7 16 1 34 -3 40
-9 6 -5 22 -12 36 -14 14 -1 28 -8 31 -13 4 -6 8 -6 11 2 3 9 9 8 21 -4 12
-13 17 -14 17 -4 0 11 2 11 9 0 4 -7 14 -12 22 -10 8 2 13 -3 11 -11 -3 -12 0
-12 12 -2 10 9 16 9 21 1 4 -6 13 -9 21 -6 8 3 14 0 14 -5 0 -7 11 -9 26 -6
16 3 28 0 31 -9 4 -12 8 -12 21 -2 13 11 14 11 7 -1 -6 -11 -3 -13 13 -9 12 4
22 2 22 -2 0 -4 9 -6 20 -3 11 3 20 1 20 -5 0 -6 11 -9 25 -8 14 2 22 -1 18
-7 -4 -6 2 -8 15 -5 12 4 22 2 22 -4 0 -6 7 -8 15 -4 8 3 15 0 16 -7 0 -7 4
-3 9 8 8 18 9 18 9 2 1 -11 7 -17 14 -14 6 2 21 -3 31 -12 11 -9 16 -11 13 -5
-4 7 2 14 14 17 17 5 18 3 7 -11 -10 -13 -10 -14 0 -8 7 4 20 2 29 -6 12 -9
15 -9 9 0 -4 6 -2 12 3 12 6 0 11 -5 11 -11 0 -5 5 -7 10 -4 6 4 23 0 39 -8
21 -11 32 -12 40 -4 7 7 11 7 11 1 0 -9 26 -15 78 -17 12 -1 22 -5 22 -10 0
-5 8 -3 17 4 9 8 14 9 10 3 -4 -7 2 -14 13 -17 11 -3 20 0 20 6 0 6 7 2 15 -9
13 -16 14 -16 9 -2 -8 22 12 24 20 2 5 -12 10 -13 19 -5 8 6 17 7 23 2 5 -5
27 -12 49 -15 22 -3 51 -8 65 -11 14 -4 39 -7 56 -9 17 -1 37 -6 44 -11 9 -6
11 -4 5 6 -7 12 -6 12 7 1 12 -9 18 -10 23 -2 5 8 12 7 24 -4 14 -13 20 -13
31 -3 10 10 12 8 6 -7 -7 -19 -6 -19 13 -2 14 13 21 14 27 5 5 -8 3 -10 -7 -4
-8 5 -11 4 -7 0 5 -5 20 -10 35 -11 20 -2 24 -1 13 6 -12 7 -10 9 7 7 12 0 19
-5 17 -9 -3 -4 2 -8 11 -8 9 0 13 5 9 11 -3 6 5 3 20 -6 18 -12 26 -14 26 -5
0 9 4 9 13 3 6 -6 20 -9 30 -8 9 2 17 0 17 -3 0 -4 21 -8 48 -8 93 -3 172 -9
172 -14 0 -3 16 -5 35 -5 19 0 35 5 35 10 0 6 3 6 8 -1 9 -13 54 -26 46 -13
-8 13 10 11 24 -3 9 -9 12 -9 12 0 0 9 6 10 18 4 9 -5 36 -8 60 -7 23 1 42 -3
42 -8 0 -5 6 -5 13 2 10 8 17 7 25 -1 9 -9 12 -9 12 2 0 11 3 11 12 2 8 -8 15
-9 25 -1 10 9 13 8 13 -1 0 -10 3 -10 14 -1 10 9 16 9 21 1 5 -8 10 -8 20 0
10 8 16 7 24 -7 10 -17 10 -17 11 1 0 20 0 20 16 0 8 -10 13 -14 10 -7 -4 6
-2 14 4 18 5 3 10 2 10 -4 0 -5 8 -8 18 -6 9 1 23 -3 31 -9 11 -8 13 -8 8 0
-4 7 0 14 8 18 8 3 17 1 20 -4 4 -6 13 -10 21 -10 8 0 12 5 9 11 -4 6 2 5 13
-2 16 -10 24 -10 35 -1 7 7 17 9 21 5 3 -4 22 -8 42 -10 25 -2 33 1 28 10 -5
9 -4 9 6 0 11 -10 17 -10 29 0 12 9 13 9 7 0 -4 -8 -2 -13 8 -13 8 0 18 5 21
10 5 8 12 7 22 -1 12 -10 16 -10 24 2 6 10 9 11 9 1 0 -8 5 -10 13 -5 16 10
38 13 33 4 -3 -4 5 -6 17 -5 12 1 22 3 22 4 0 7 78 4 82 -3 2 -4 11 -3 18 3
10 8 15 8 20 0 4 -7 11 -8 18 -1 7 5 27 8 45 7 17 -1 32 2 32 6 0 5 9 4 20 -2
11 -6 20 -7 20 -3 0 5 24 8 53 8 28 0 57 3 62 6 17 12 27 11 36 -3 7 -10 9
-10 9 0 0 7 4 11 9 7 5 -3 13 -1 16 5 5 8 11 7 21 -1 8 -6 14 -8 14 -3 0 5 19
9 43 8 23 0 49 3 58 7 8 4 21 4 29 -1 8 -5 21 -3 34 5 17 12 21 12 33 -3 10
-13 13 -13 11 -2 -2 9 6 15 22 16 14 0 27 2 30 3 3 1 20 4 37 5 22 3 31 0 26
-8 -3 -6 0 -6 8 2 7 6 30 12 52 12 28 0 36 3 31 13 -5 8 -2 8 9 -2 14 -11 17
-11 17 0 0 12 2 12 9 0 5 -7 11 -9 14 -4 3 5 26 9 51 9 24 -1 42 2 39 7 -4 7
10 9 79 11 20 0 34 4 32 7 -2 4 3 9 11 13 8 3 15 0 15 -7 0 -8 4 -6 10 3 9 13
10 13 10 0 0 -12 2 -13 9 -1 5 7 14 10 20 7 6 -4 11 -2 11 5 0 8 5 7 17 -2 13
-11 15 -11 9 -1 -6 10 -3 13 10 11 11 -2 25 0 33 5 10 6 12 5 7 -2 -5 -8 -2
-10 8 -6 9 3 16 11 16 18 0 6 5 4 10 -4 7 -11 10 -11 10 -2 0 7 5 10 10 7 6
-4 17 -1 25 5 12 10 15 10 15 0 0 -10 3 -10 15 0 8 7 26 10 40 8 13 -3 22 -1
19 3 -3 5 -2 9 3 10 63 5 90 13 101 26 11 15 12 15 12 -1 0 -14 3 -16 13 -7 8
6 17 8 20 4 4 -3 7 -1 7 7 0 10 4 10 17 -1 9 -8 14 -9 10 -3 -4 7 0 15 9 18 8
3 12 2 9 -4 -3 -6 1 -7 9 -4 9 3 14 9 12 13 -3 4 11 6 30 6 19 -1 37 2 40 7 3
5 10 6 15 3 5 -4 9 -2 9 2 0 5 12 8 28 8 15 -1 32 3 39 8 7 5 18 7 25 4 7 -2
20 1 28 8 15 13 68 27 103 26 9 0 15 5 11 10 -3 6 2 10 12 9 35 -4 45 0 38 13
-6 9 -4 9 8 -1 13 -10 18 -10 24 -1 5 8 3 9 -6 4 -9 -6 -11 -4 -5 4 5 9 11 9
17 3 7 -7 22 -5 44 4 19 8 39 12 44 9 6 -4 10 -1 10 4 0 6 11 11 24 11 14 0
28 5 31 11 4 6 13 8 21 5 8 -3 14 -1 14 4 0 5 6 7 14 4 8 -3 17 0 22 7 5 8 3
10 -6 4 -9 -5 -11 -4 -6 4 6 9 11 9 22 0 10 -8 14 -8 14 -1 0 7 7 9 17 5 11
-4 14 -3 9 5 -5 8 -2 10 8 6 9 -3 16 -2 16 4 0 6 8 9 18 7 9 -1 23 2 30 8 7 5
20 11 30 12 24 2 56 17 64 29 5 7 8 7 8 -2 0 -9 6 -9 23 3 13 8 26 12 29 9 4
-3 18 2 32 11 14 10 26 14 26 10 0 -3 7 1 16 9 8 9 20 14 25 11 5 -4 9 0 9 7
0 11 2 11 9 0 6 -11 11 -10 25 3 9 9 16 13 16 10 0 -4 10 -1 23 7 12 8 30 14
40 12 9 -1 15 2 11 7 -3 5 2 9 10 9 9 0 16 4 16 10 0 5 7 7 15 4 8 -4 15 -1
15 6 0 6 4 9 9 6 13 -8 42 4 36 15 -3 4 4 6 16 4 12 -3 35 5 52 17 17 12 27
16 23 9 -6 -10 -3 -10 13 1 12 7 21 15 21 18 0 3 12 7 28 8 15 1 32 8 37 15 6
6 15 12 20 13 19 2 75 28 75 36 0 4 5 8 11 8 5 0 7 -6 3 -12 -5 -9 -3 -9 9 1
9 7 15 17 12 21 -2 4 7 5 22 2 18 -3 24 -1 19 7 -5 7 1 11 17 11 13 0 33 9 44
20 15 14 23 16 26 7 4 -9 6 -9 6 0 1 7 8 10 18 6 10 -4 14 -2 10 4 -4 6 13 18
38 29 25 10 45 22 45 26 0 4 7 4 17 1 11 -4 14 -3 9 5 -6 11 12 17 37 13 4 -1
10 6 13 14 4 8 15 15 25 15 11 0 22 6 25 14 3 8 12 12 20 9 8 -3 14 0 14 7 0
6 5 8 10 5 6 -3 10 -1 10 6 0 7 3 10 6 6 3 -3 24 5 45 19 21 13 43 24 49 24 5
0 10 4 10 10 0 5 3 10 8 9 15 -2 52 14 52 22 0 5 9 9 20 9 11 0 20 4 20 9 0 5
11 12 25 15 14 4 25 14 25 23 0 13 3 14 11 6 8 -8 17 -5 34 13 12 13 25 21 28
17 4 -3 7 -1 7 6 0 7 6 11 14 8 8 -3 17 1 20 9 3 9 11 14 18 12 17 -6 48 23
41 36 -4 6 2 4 12 -4 10 -8 16 -10 12 -4 -6 11 6 21 27 22 5 0 13 7 18 16 5 9
13 14 19 11 5 -4 9 -1 9 5 0 6 4 9 9 6 5 -3 11 1 15 9 3 8 10 15 16 15 12 0
71 39 82 55 5 6 8 6 8 1 0 -6 9 0 20 12 12 12 27 22 35 22 8 0 15 5 15 10 0 6
6 10 14 10 8 0 22 10 30 22 9 12 16 17 16 10 0 -10 4 -9 16 2 8 9 20 14 25 11
5 -4 6 2 2 11 -4 12 -3 15 5 10 7 -4 12 -2 12 3 0 6 7 11 15 11 9 0 18 7 21
15 4 8 10 12 15 9 5 -3 9 0 9 5 0 6 7 11 16 11 8 0 12 5 9 10 -3 6 1 10 9 10
8 0 22 8 32 18 10 9 22 17 28 17 6 1 10 6 9 13 -2 7 4 9 14 5 11 -4 14 -3 9 5
-5 8 0 12 14 12 12 0 18 4 15 10 -3 5 0 10 8 10 8 0 18 7 21 16 3 9 13 14 20
11 8 -3 17 1 20 9 3 9 11 12 17 8 8 -4 9 -3 5 4 -7 11 32 38 47 34 5 -1 6 2 2
8 -3 5 -1 10 5 10 6 0 9 4 6 9 -3 5 2 8 12 7 9 0 16 5 14 12 -1 8 2 11 8 7 5
-3 10 -1 10 5 0 6 5 8 10 5 6 -3 10 1 10 10 0 9 5 13 10 10 6 -3 10 -1 10 6 0
7 3 9 7 6 3 -4 17 8 30 25 12 18 23 27 23 22 0 -6 -3 -14 -7 -20 -5 -5 7 6 25
24 17 18 32 29 32 25 0 -4 5 0 11 10 6 9 14 15 19 12 5 -3 12 4 15 16 4 11 9
18 12 15 3 -3 16 6 28 20 14 17 28 24 35 19 9 -5 11 -4 6 4 -4 6 0 14 8 17 9
3 13 10 10 15 -3 5 3 6 12 2 10 -3 15 -2 12 3 -3 5 3 17 14 27 10 9 18 14 18
10 0 -3 9 4 20 17 11 13 20 19 20 14 1 -5 7 2 15 16 8 14 14 21 15 15 0 -5 10
4 21 20 13 19 19 23 15 10 -6 -20 -6 -20 9 -1 8 11 15 24 15 29 0 5 7 6 16 3
9 -3 12 -2 9 5 -4 6 3 13 15 16 13 3 19 11 16 19 -3 8 1 14 10 14 9 0 12 5 8
12 -5 8 0 9 14 6 12 -4 19 -2 16 3 -3 5 2 16 10 25 9 8 16 13 16 10 0 -3 8 2
18 12 11 9 17 20 15 24 -2 4 6 9 17 13 11 4 18 10 15 15 -3 4 5 10 16 13 11 3
23 15 26 26 3 11 9 18 14 15 5 -3 12 2 15 10 3 9 10 13 15 10 5 -3 9 -1 9 4 0
13 58 71 64 64 3 -3 6 1 6 9 1 8 14 25 30 39 17 13 30 31 30 39 0 8 3 12 6 8
8 -7 54 38 54 53 0 6 4 9 8 6 7 -4 20 9 58 59 9 11 13 13 9 5 -4 -8 1 -6 9 4
9 11 16 24 16 29 0 4 4 6 9 3 5 -3 11 4 14 15 3 12 10 18 17 14 6 -3 9 -3 8 2
-4 12 38 63 51 63 6 0 11 7 11 15 0 8 4 15 10 15 5 0 9 6 7 12 -1 7 4 12 11
11 6 -2 12 4 12 12 0 8 7 15 16 15 10 0 14 6 11 14 -4 9 2 17 14 21 10 4 19
13 19 21 0 9 5 12 12 8 8 -5 9 -2 5 10 -4 9 -3 15 2 12 11 -7 47 33 56 62 3
12 9 20 13 18 8 -4 26 13 31 29 2 6 7 9 13 7 5 -1 7 2 4 7 -4 5 0 13 8 18 14
8 16 12 16 32 0 5 8 8 17 7 10 0 18 6 19 14 3 35 5 39 24 45 11 3 19 10 17 15
-1 5 7 16 18 25 11 9 13 13 5 9 -8 -4 -4 4 10 17 13 13 28 23 32 22 4 -2 5 3
2 11 -3 7 6 24 20 37 14 13 26 28 26 33 0 5 11 19 25 32 14 13 25 28 25 34 0
5 4 10 10 10 5 0 7 7 4 15 -4 10 0 15 11 15 11 0 15 5 11 16 -3 8 -2 13 3 10
5 -3 15 2 22 11 12 14 12 16 -1 9 -8 -5 -1 4 15 19 17 14 24 23 17 20 -11 -6
-11 -3 -1 13 7 12 16 19 20 16 4 -2 10 5 14 16 3 11 11 20 16 20 5 0 9 5 9 12
0 6 12 27 27 46 15 20 20 32 12 27 -8 -4 -4 2 9 14 12 12 20 26 17 31 -4 6 2
7 12 3 10 -3 15 -3 11 2 -4 4 1 20 12 35 11 15 17 30 13 34 -3 3 2 6 11 6 10
0 16 6 14 12 -3 7 0 18 6 25 6 7 16 18 21 25 6 7 17 22 25 33 13 17 13 18 0
11 -8 -4 -4 1 9 12 15 12 21 24 16 32 -6 10 -3 12 11 6 10 -4 15 -4 12 0 -4 3
4 26 17 51 14 24 25 51 25 61 0 12 3 13 8 4 6 -8 13 -1 22 23 7 19 18 31 23
28 6 -4 7 -1 3 6 -5 7 0 19 10 27 11 9 13 12 5 9 -13 -8 15 44 32 56 4 3 9 15
10 26 1 14 6 19 16 15 10 -4 13 -1 8 11 -3 9 -2 17 4 17 6 0 7 5 4 10 -3 6 -1
10 5 10 6 0 9 4 5 9 -3 6 0 13 7 18 7 4 19 19 26 32 11 19 11 22 0 15 -7 -4
-3 5 10 20 12 16 22 35 22 42 0 8 5 14 10 14 6 0 10 9 10 20 0 11 4 20 9 20 5
0 12 14 16 30 4 17 11 30 16 30 5 0 9 5 9 12 0 6 8 20 18 31 12 15 13 19 2 13
-12 -6 -12 -5 1 6 9 7 14 19 12 26 -3 6 4 12 14 13 10 0 13 3 6 6 -10 3 -9 8
3 20 8 9 13 22 10 30 -3 8 -2 11 4 8 5 -3 14 13 21 35 7 22 16 40 21 40 5 0 6
5 3 10 -3 6 -1 10 5 10 6 0 9 3 6 8 -7 11 29 83 38 75 4 -4 5 5 2 20 -3 16 -1
25 5 22 8 -6 13 8 10 28 0 4 4 7 10 7 5 0 8 4 4 9 -3 5 2 16 11 25 8 9 12 20
9 26 -3 5 -1 10 4 10 6 0 11 9 11 20 0 11 3 20 8 20 11 0 33 80 26 92 -4 6 -3
8 3 5 6 -4 14 3 18 16 4 12 8 25 10 30 1 4 3 12 4 18 0 5 5 8 10 5 5 -4 8 2 6
11 -1 10 2 24 8 31 5 6 6 12 1 12 -4 0 1 7 12 16 19 15 19 16 0 9 -19 -6 -19
-5 -3 13 9 10 17 24 17 30 0 7 5 12 11 12 5 0 7 5 4 10 -3 6 -1 10 5 10 6 0 8
5 5 10 -4 6 -1 17 5 25 6 8 9 19 5 25 -3 5 -1 10 4 10 6 0 10 3 10 8 -3 20 2
32 13 26 7 -4 8 -3 4 5 -10 16 2 64 13 56 5 -3 7 3 4 13 -2 11 3 26 12 36 12
12 13 16 3 16 -10 0 -9 3 2 10 8 5 11 10 5 10 -5 0 -2 5 8 11 14 8 16 14 6 25
-9 11 -9 14 1 14 7 0 10 8 8 18 -3 10 1 23 9 30 7 7 11 17 8 23 -4 5 0 9 7 9
9 0 9 3 -2 10 -10 6 -11 10 -2 10 6 0 12 9 12 19 0 11 6 22 13 24 9 4 9 6 -1
6 -10 1 -9 5 3 17 11 12 13 20 5 29 -7 9 -6 16 6 25 8 8 13 22 11 32 -3 11 0
18 9 18 7 0 11 6 8 14 -3 8 0 17 6 21 8 5 7 11 -2 23 -10 12 -10 14 0 8 11 -7
16 10 15 52 -1 6 3 12 9 12 5 0 7 4 3 9 -3 5 0 13 6 16 5 4 8 13 5 20 -2 7 2
22 10 33 8 12 14 25 13 29 -4 24 2 73 9 69 8 -5 14 20 14 66 0 17 5 25 11 21
6 -4 8 4 5 21 -3 14 -1 26 4 26 5 0 7 4 4 9 -4 5 0 12 6 14 10 4 10 6 1 6 -7
1 -10 8 -7 16 4 8 10 13 14 10 5 -3 6 3 3 14 -2 10 1 38 8 62 7 24 13 51 13
59 1 8 5 21 9 28 5 6 6 16 2 21 -3 5 0 13 6 17 8 4 7 9 -2 15 -12 7 -12 9 0 9
7 0 11 6 8 15 -4 8 -2 17 4 21 6 4 5 12 -3 22 -7 9 -8 13 -2 9 15 -9 24 25 13
45 -6 10 -4 20 5 27 7 6 12 22 10 36 -1 14 1 25 6 25 4 0 6 9 3 20 -3 11 -1
20 4 20 5 0 8 20 7 45 -1 27 2 42 8 39 5 -4 8 2 7 12 -2 11 0 25 5 33 7 10 6
12 -4 6 -9 -6 -11 -4 -5 5 9 14 15 48 17 95 1 17 7 33 13 37 6 5 4 8 -5 8 -13
0 -13 1 0 10 11 7 11 10 2 10 -9 0 -10 5 -4 18 5 9 10 37 11 61 0 24 6 50 13
58 9 11 9 16 -3 24 -8 5 -9 9 -2 9 6 0 10 11 8 25 -1 14 1 25 5 25 3 0 4 14 2
31 -3 20 0 34 9 40 9 5 10 9 2 9 -11 0 -12 16 -2 35 3 6 5 36 4 67 -1 50 1 56
14 45 9 -6 8 -2 -3 11 -11 12 -14 22 -8 22 6 0 9 6 6 14 -3 8 -1 23 4 33 12
22 4 46 -11 36 -7 -3 -3 3 7 15 14 17 16 22 5 22 -12 0 -12 2 0 9 11 7 11 9 0
14 -12 5 -12 6 0 6 11 1 11 4 1 16 -7 9 -8 15 -2 15 11 0 10 25 -1 36 -4 4 -2
13 4 21 6 7 8 13 3 13 -5 0 -2 5 6 10 12 8 12 10 -5 10 -19 1 -19 1 -2 11 10
6 14 15 10 22 -10 17 -10 77 0 77 5 0 4 7 -3 15 -9 11 -9 15 -1 15 8 0 9 5 2
18 -5 10 -6 24 -1 32 5 8 4 22 -1 32 -7 13 -6 18 2 18 8 0 8 4 -1 15 -10 12
-9 15 6 15 12 0 15 3 8 8 -7 4 -11 38 -10 87 1 44 -2 88 -7 98 -5 11 -3 17 5
17 9 0 9 3 -2 10 -11 7 -11 10 -2 10 10 0 10 5 2 20 -8 15 -8 20 2 20 8 0 9 3
3 8 -13 9 -15 42 -3 42 7 0 6 5 -1 13 -6 8 -8 17 -4 21 4 4 1 11 -7 16 -8 6
-10 10 -4 10 6 0 11 14 12 30 0 17 -4 30 -11 30 -6 0 -2 7 9 15 19 15 19 15
-1 8 l-20 -6 20 23 c11 13 15 20 9 17 -7 -4 -14 0 -18 8 -3 8 -2 15 3 15 4 0
8 7 8 15 0 8 -4 12 -9 9 -4 -3 -8 0 -8 5 0 6 5 11 11 11 8 0 8 4 0 13 -8 10
-7 17 2 27 6 7 7 10 1 7 -7 -4 -11 5 -12 23 0 17 5 30 11 30 7 0 4 5 -6 11
-13 8 -15 15 -7 28 5 10 6 21 3 25 -3 3 3 6 15 6 12 0 22 4 22 10 0 5 11 12
25 16 14 3 25 9 25 13 0 11 59 33 71 25 8 -4 9 -3 5 4 -4 7 4 17 21 24 15 7
34 18 41 25 8 7 17 11 22 8 4 -3 10 2 14 10 3 8 14 15 23 15 10 0 25 9 33 20
10 14 16 16 22 7 6 -9 8 -9 8 1 0 6 5 12 11 12 6 0 17 6 24 13 34 29 43 35 48
30 3 -3 15 1 26 9 12 8 19 17 16 19 -2 3 6 6 18 6 12 1 23 7 25 13 2 5 10 10
18 10 8 0 14 5 14 11 0 5 4 8 9 5 5 -3 14 0 20 8 7 8 23 17 37 20 14 4 22 11
19 16 -3 6 1 7 9 4 9 -4 16 -1 16 6 0 7 7 10 15 6 9 -3 15 0 15 9 0 9 6 12 17
8 12 -5 14 -3 8 7 -6 10 -4 12 8 7 10 -3 17 -2 17 3 0 6 7 10 16 10 8 0 12 5
9 10 -4 6 -3 9 2 8 12 -4 83 35 83 45 0 4 5 5 12 1 6 -4 16 0 22 8 11 15 17
18 37 18 5 0 7 5 3 12 -4 6 -3 8 4 4 6 -3 17 1 26 9 8 9 18 16 21 15 21 -1 25
1 19 12 -5 7 -3 8 6 3 8 -5 18 -1 27 11 8 10 15 18 16 16 5 -8 57 19 52 27 -3
6 4 8 15 6 13 -3 29 5 42 21 15 16 24 20 29 13 4 -7 9 -4 14 10 3 12 11 19 16
15 6 -3 16 0 24 6 8 7 15 10 15 6 0 -3 9 3 20 14 12 12 25 18 30 15 6 -4 10 1
10 9 0 10 7 13 20 11 11 -2 18 0 15 4 -5 9 23 26 38 23 4 -1 7 2 7 8 0 5 6 7
14 4 7 -3 16 2 19 10 4 9 16 16 27 16 12 0 18 5 15 10 -3 6 3 10 14 10 12 0
21 5 21 11 0 5 4 8 9 5 4 -3 16 3 26 14 10 11 22 17 26 14 5 -3 9 0 9 7 0 7 3
9 7 6 3 -4 12 1 20 11 8 9 11 11 7 3 -4 -8 9 -2 29 13 22 17 41 25 49 20 7 -4
10 -4 6 0 -4 5 -1 14 5 21 9 10 15 10 26 1 11 -8 13 -8 8 0 -8 13 19 27 34 19
5 -4 6 2 2 11 -4 10 -2 15 4 11 5 -3 26 5 45 18 20 13 38 21 42 18 3 -4 6 -1
6 5 0 7 7 12 15 12 9 0 18 7 22 16 3 8 12 13 20 10 7 -3 16 1 20 10 3 8 12 13
20 10 8 -3 11 -2 8 3 -3 5 -1 12 5 16 5 3 10 0 10 -7 1 -8 6 -6 15 6 8 11 15
16 15 10 0 -5 5 -1 11 8 6 11 16 15 26 11 11 -4 14 -3 9 5 -4 7 -1 12 9 12 8
0 18 6 21 14 3 7 16 12 30 10 13 -1 22 1 20 5 -3 4 8 15 25 25 16 9 29 14 29
9 0 -4 5 0 11 10 6 9 14 15 20 12 5 -4 9 -1 9 6 0 7 3 10 6 6 4 -3 13 1 21 9
8 8 19 12 24 9 5 -4 9 -3 9 2 0 4 12 17 27 27 16 12 23 14 18 5 -4 -8 7 0 26
16 18 17 27 22 20 13 -17 -23 -10 -23 17 1 12 10 18 22 14 26 -4 5 -2 5 5 2 6
-4 17 -1 25 6 7 8 19 12 26 9 15 -5 15 0 0 33 -6 14 -18 25 -26 25 -9 0 -13 3
-9 6 3 4 -12 24 -33 44 -22 21 -40 41 -40 45 0 13 -28 34 -35 27 -5 -4 -5 -2
-2 4 4 7 0 17 -8 24 -8 7 -12 16 -9 21 3 5 -3 6 -13 2 -10 -3 -15 -3 -12 1 4
4 -8 23 -27 42 -19 19 -32 34 -29 34 4 0 -10 15 -29 34 -20 18 -36 37 -36 42
0 5 -14 20 -30 33 -17 13 -30 28 -30 33 0 6 -11 21 -26 34 -14 13 -22 24 -18
24 4 0 -3 8 -14 19 -12 10 -18 21 -14 25 4 4 2 6 -3 4 -14 -4 -65 49 -65 68 0
8 -4 13 -8 10 -5 -3 -17 7 -28 21 -10 15 -29 37 -41 49 -12 12 -19 25 -16 28
4 3 0 6 -9 6 -8 0 -21 12 -29 27 -17 32 -56 73 -69 73 -6 0 -9 6 -8 13 2 6 -3
11 -10 9 -6 -1 -11 1 -10 5 4 13 -34 63 -43 57 -5 -3 -9 4 -9 16 0 12 -4 18
-10 15 -5 -3 -10 1 -10 9 0 9 -7 16 -15 16 -8 0 -14 6 -13 13 2 6 -2 11 -9 10
-6 -1 -14 4 -17 13 -4 10 -2 13 6 8 7 -4 8 -3 4 4 -4 7 -13 12 -20 12 -8 0
-20 8 -27 18 -13 16 -12 16 6 3 11 -8 8 -2 -7 13 -16 15 -28 31 -28 37 0 6 -5
7 -10 4 -6 -3 -10 0 -10 8 0 8 -7 18 -16 21 -8 3 -12 10 -9 16 3 6 -1 7 -10 4
-9 -4 -15 -3 -14 2 4 22 -2 34 -18 34 -9 0 -14 3 -10 6 6 7 1 13 -59 79 -23
24 -39 46 -36 49 3 4 -2 6 -11 6 -10 0 -16 6 -15 13 2 6 -3 11 -9 9 -7 -1 -13
5 -13 13 0 8 -4 15 -10 15 -5 0 -10 7 -10 16 0 8 -4 12 -10 9 -5 -3 -10 -1
-10 5 0 7 -13 24 -28 38 -16 15 -31 35 -35 45 -3 9 -11 17 -17 17 -6 0 -8 5
-4 12 4 7 3 8 -4 4 -13 -8 -35 28 -24 39 4 3 2 6 -3 5 -20 -4 -36 0 -31 8 3 5
-8 19 -25 32 -16 14 -29 28 -29 33 0 4 -12 19 -26 32 -15 14 -24 25 -20 25 4
0 1 7 -8 15 -8 8 -20 15 -26 15 -6 0 -8 5 -5 10 3 6 1 10 -4 10 -6 0 -11 5
-11 10 0 6 -23 34 -50 61 -28 28 -48 55 -45 60 4 5 -3 9 -15 9 -12 0 -19 4
-15 9 3 5 -4 16 -15 24 -11 7 -17 17 -13 20 3 4 -1 7 -10 7 -10 0 -17 7 -17
15 0 8 -4 15 -10 15 -5 0 -10 7 -10 15 0 8 -7 15 -16 15 -8 0 -13 3 -11 8 7
10 -19 32 -28 24 -4 -4 -6 -2 -5 3 5 21 0 36 -10 30 -5 -3 -10 1 -10 9 0 9
-11 23 -25 32 -14 9 -23 19 -21 23 2 3 -2 12 -10 19 -8 7 -14 10 -14 7 0 -3
-6 0 -14 7 -8 7 -12 16 -10 20 2 3 -16 26 -41 50 -24 23 -45 49 -45 56 0 7 -4
10 -10 7 -5 -3 -10 1 -10 9 0 9 -5 16 -11 16 -5 0 -8 4 -5 9 3 5 -4 11 -15 14
-12 3 -18 10 -15 16 4 5 -3 12 -14 16 -11 3 -20 13 -20 21 0 8 -4 14 -10 14
-5 0 -10 7 -10 15 0 8 -7 15 -17 15 -9 0 -14 3 -10 6 3 3 -5 17 -19 31 -13 13
-22 28 -19 33 3 4 -5 6 -17 4 -13 -2 -17 -1 -10 2 10 5 8 10 -7 21 -12 8 -21
21 -21 30 0 9 -3 13 -7 10 -7 -8 -53 39 -53 54 0 6 -5 7 -10 4 -6 -4 -10 -3
-9 2 3 20 -2 34 -11 28 -5 -3 -10 0 -10 8 0 8 -11 22 -24 33 -14 10 -23 21
-20 26 3 4 -3 8 -12 8 -10 0 -15 3 -11 6 8 9 -36 52 -47 46 -5 -3 -6 0 -2 6 3
6 -9 27 -29 46 -19 19 -35 38 -35 41 0 12 -28 34 -34 28 -3 -4 -6 1 -6 10 0 9
-4 17 -9 17 -5 0 -13 9 -16 20 -3 11 -12 20 -18 20 -13 0 -63 70 -59 83 1 4
-7 7 -18 7 -11 0 -20 7 -20 15 0 8 -4 15 -9 15 -5 0 -12 8 -16 18 -3 11 -16
24 -30 30 -21 10 -23 9 -18 -5 4 -11 3 -14 -5 -9 -7 4 -12 2 -12 -4 0 -6 -5
-8 -10 -5 -6 3 -13 -1 -16 -9 -3 -9 -10 -14 -14 -11 -5 3 -14 0 -22 -7 -25
-23 -75 -48 -83 -40 -5 4 -5 1 -1 -5 4 -8 1 -13 -8 -13 -9 0 -16 -5 -16 -11 0
-5 -4 -8 -9 -5 -5 3 -12 -1 -15 -10 -3 -8 -10 -12 -16 -9 -6 3 -13 -1 -16 -10
-4 -9 -13 -14 -20 -11 -8 3 -14 1 -14 -5 0 -6 -7 -8 -16 -5 -14 5 -15 4 -4 -9
11 -13 10 -14 -2 -10 -9 4 -25 -5 -38 -18 -13 -14 -29 -23 -36 -20 -7 2 -15
-1 -19 -6 -3 -6 -11 -9 -16 -5 -5 3 -8 2 -7 -3 2 -4 -1 -9 -6 -10 -5 -1 -12
-6 -15 -11 -3 -6 -13 -12 -21 -14 -8 -2 -25 -13 -36 -25 -12 -12 -25 -19 -28
-16 -3 4 -14 -2 -23 -13 -10 -10 -25 -20 -33 -22 -8 -2 -18 -8 -21 -14 -3 -5
-9 -9 -13 -9 -20 3 -26 0 -20 -11 5 -8 0 -9 -14 -6 -12 4 -20 3 -18 0 5 -10
-20 -32 -28 -25 -3 4 -6 1 -6 -5 0 -6 -7 -9 -15 -6 -14 6 -20 -7 -16 -30 1 -5
-5 -4 -13 4 -13 10 -16 10 -16 -4 0 -9 -3 -15 -7 -14 -14 4 -53 -13 -53 -23 0
-5 -7 -9 -15 -9 -8 0 -15 -5 -15 -11 0 -5 -4 -7 -10 -4 -5 3 -10 1 -10 -6 0
-7 -3 -10 -6 -6 -4 3 -12 1 -20 -6 -32 -29 -44 -37 -44 -32 0 4 -13 -3 -29
-14 -16 -12 -34 -21 -40 -21 -6 0 -11 -4 -11 -10 0 -5 -7 -10 -16 -10 -9 0
-13 -5 -9 -12 4 -7 -2 -3 -13 9 -11 12 -22 19 -26 16 -6 -6 -10 12 -7 30 0 4
-4 7 -10 7 -6 0 -9 7 -6 14 4 10 1 13 -9 9 -9 -3 -14 2 -14 16 0 12 -4 21 -10
21 -5 0 -10 6 -10 13 0 7 -9 19 -19 27 -11 7 -18 17 -16 21 3 4 -2 12 -10 19
-8 7 -12 16 -9 21 3 5 -1 9 -9 9 -7 0 -20 12 -28 28 -8 15 -18 30 -24 34 -5 4
-7 8 -3 8 4 0 -4 12 -17 26 -14 15 -22 31 -18 37 3 6 1 7 -5 3 -7 -4 -17 3
-24 18 -6 14 -15 26 -20 26 -5 0 -6 5 -3 10 3 6 2 10 -4 10 -5 0 -13 9 -16 20
-3 11 -14 20 -23 21 -10 0 -12 3 -5 6 13 5 -35 60 -49 56 -4 -2 -5 4 -2 12 4
8 -1 17 -10 21 -9 3 -13 10 -10 15 3 5 -2 9 -11 9 -11 0 -15 5 -11 15 3 9 0
15 -10 15 -9 0 -12 5 -8 12 5 8 2 9 -9 5 -9 -3 -16 -3 -15 1 4 15 -14 52 -23
47 -5 -4 -9 4 -9 16 0 12 -3 19 -6 16 -10 -10 -45 34 -37 46 3 6 1 7 -5 3 -7
-4 -12 -1 -12 9 0 9 -4 13 -10 10 -5 -3 -10 -1 -10 5 0 6 -11 22 -25 36 -14
14 -23 30 -19 35 3 5 0 8 -7 7 -7 -2 -22 11 -34 29 -12 18 -25 29 -29 26 -3
-4 -6 -1 -6 6 0 15 -25 42 -33 35 -2 -3 -7 7 -11 21 -4 14 -13 25 -20 25 -8 0
-20 13 -27 29 -7 16 -16 28 -19 27 -3 -2 -13 5 -22 16 -10 10 -16 18 -13 18 3
0 0 6 -7 14 -7 8 -16 12 -20 9 -5 -2 -8 1 -8 7 0 15 -26 40 -42 40 -10 0 -9 3
2 10 12 8 10 10 -9 10 -16 0 -21 4 -17 15 3 8 2 15 -3 15 -15 0 -51 37 -43 45
4 5 -1 5 -11 2 -10 -4 -16 -3 -13 2 8 12 -19 33 -29 23 -5 -4 -5 -2 -1 5 3 6
-4 19 -16 27 -12 9 -19 16 -16 16 4 0 -4 11 -18 25 -14 14 -29 25 -34 25 -9 0
-14 15 -11 33 1 5 -3 6 -9 2 -5 -3 -10 -1 -10 4 0 6 -6 10 -12 8 -7 -1 -12 4
-11 11 2 6 -1 12 -5 12 -14 0 -52 36 -52 49 0 7 -4 9 -10 6 -5 -3 -10 -1 -10
4 0 6 -10 11 -22 11 -14 0 -18 3 -12 8 8 5 0 19 -24 42 -19 19 -37 34 -39 33
-2 -2 -4 0 -5 5 -5 18 -23 30 -30 18 -5 -6 -8 0 -8 14 0 20 -2 22 -10 10 -8
-13 -10 -12 -10 3 0 11 -9 21 -20 24 -11 3 -20 12 -20 20 0 10 -6 13 -16 9 -8
-3 -13 -2 -10 3 3 4 -6 18 -19 29 -14 12 -25 20 -25 17 0 -3 -8 3 -18 13 -11
9 -17 21 -14 26 3 5 -2 7 -11 3 -11 -4 -17 -1 -17 8 0 8 -7 15 -15 15 -8 0
-15 5 -15 11 0 5 -4 7 -10 4 -6 -4 -7 1 -3 11 5 14 3 16 -11 11 -10 -4 -15 -3
-11 3 3 6 1 10 -4 10 -6 0 -21 11 -33 25 -12 14 -26 25 -31 25 -13 0 -37 27
-30 34 4 3 -4 6 -16 6 -12 0 -20 4 -17 9 3 4 -6 13 -19 19 -14 7 -25 16 -25
22 0 5 -7 10 -15 10 -8 0 -15 5 -15 11 0 5 -4 7 -10 4 -5 -3 -10 1 -10 9 0 9
-3 15 -7 15 -21 -3 -33 3 -33 17 0 8 -4 13 -9 10 -5 -3 -12 1 -15 10 -4 9 -13
14 -21 10 -8 -3 -14 -2 -14 2 1 4 1 14 0 22 -1 13 -2 13 -11 0 -8 -13 -10 -12
-10 2 0 10 -6 17 -12 15 -7 -1 -12 4 -11 11 3 11 -9 16 -29 13 -5 0 -8 3 -8 7
0 5 -12 14 -26 20 -14 7 -22 17 -19 22 4 6 3 10 -2 9 -4 -1 -19 2 -31 6 -18 6
-21 10 -10 17 9 7 7 8 -10 5 -12 -3 -20 -1 -17 3 3 5 -4 11 -15 15 -11 4 -18
11 -15 16 4 5 -3 9 -14 9 -12 0 -21 5 -21 10 0 6 -7 10 -15 10 -8 0 -15 5 -15
10 0 6 -5 10 -11 10 -7 0 -20 10 -30 22 -11 11 -19 18 -19 14 0 -4 -7 -1 -15
6 -8 7 -20 18 -27 23 -7 6 -22 17 -33 25 -17 13 -18 13 -10 0 8 -13 6 -13 -8
-1 -9 7 -14 18 -10 25 3 6 3 8 -2 4 -4 -4 -14 -3 -22 3 -7 6 -13 8 -13 5 0 -4
-6 -1 -14 6 -8 7 -12 16 -9 21 2 4 1 7 -4 6 -26 -4 -53 3 -50 14 1 6 -4 11
-10 10 -7 -2 -13 2 -13 7 0 6 -6 10 -13 10 -7 0 -18 9 -25 20 -7 12 -23 20
-38 20 -14 0 -23 4 -19 10 3 6 -1 10 -10 10 -8 0 -18 7 -21 15 -4 8 -10 12
-15 10 -4 -3 -17 3 -29 15 -11 11 -20 15 -20 8 0 -6 -9 -1 -20 12 -11 13 -23
21 -26 17 -3 -3 -15 4 -26 15 -11 11 -26 17 -34 14 -9 -3 -12 -1 -9 4 3 6 -1
10 -9 10 -9 0 -16 5 -16 11 0 5 -4 8 -9 5 -5 -3 -12 1 -15 10 -3 8 -10 13 -15
10 -14 -9 -41 5 -41 21 0 8 -4 12 -9 9 -4 -3 -23 6 -42 20 -18 13 -39 22 -46
20 -7 -3 -12 0 -10 7 1 7 -6 11 -17 9 -12 -2 -16 1 -10 9 5 9 2 10 -9 6 -9 -3
-18 0 -21 9 -3 8 -17 14 -31 14 -15 0 -25 6 -25 14 0 9 -9 13 -25 12 -13 -2
-22 1 -19 5 3 5 -2 9 -11 9 -8 0 -18 7 -22 16 -3 8 -12 13 -19 10 -8 -3 -14
-1 -14 5 0 6 -7 9 -15 5 -9 -3 -15 1 -15 11 0 13 -2 14 -17 2 -9 -8 -14 -9
-11 -4 3 6 0 16 -8 23 -11 10 -14 10 -14 0 0 -9 -3 -9 -10 2 -5 8 -10 11 -10
5 0 -5 -5 -3 -10 6 -5 8 -27 21 -49 29 -22 7 -38 16 -36 20 3 4 -7 8 -22 8
-15 0 -29 5 -31 11 -2 6 -12 11 -23 11 -10 0 -19 5 -19 11 0 6 -7 8 -16 5 -8
-3 -13 -2 -10 3 3 5 -1 12 -10 15 -9 4 -13 2 -8 -5 3 -6 -5 -3 -19 6 -15 9
-32 13 -39 9 -7 -4 -10 -4 -6 1 8 9 -36 35 -58 35 -8 0 -14 5 -14 10 0 6 -8
10 -18 10 -10 0 -35 9 -57 20 -22 11 -45 20 -52 20 -7 0 -13 4 -13 8 0 5 -7 9
-15 10 -8 1 -22 3 -30 4 -8 1 -15 5 -15 10 0 4 -12 8 -26 8 -14 0 -23 4 -20 8
4 7 -9 11 -51 14 -7 1 -10 5 -8 9 6 9 -24 21 -36 13 -5 -3 -16 2 -25 10 -9 9
-20 13 -26 10 -5 -3 -21 5 -35 17 -15 13 -23 18 -19 12 4 -7 2 -13 -3 -13 -6
0 -11 5 -11 11 0 5 -4 8 -9 4 -5 -3 -12 -1 -16 4 -3 6 -13 7 -22 4 -12 -5 -14
-3 -8 7 6 10 4 12 -8 7 -10 -3 -17 -2 -17 3 0 5 -9 7 -19 5 -11 -2 -22 3 -25
11 -3 9 -10 12 -16 9 -5 -3 -16 -3 -22 2 -7 4 -24 9 -38 11 -13 2 -30 8 -37
14 -7 6 -13 7 -13 3 0 -5 -9 0 -19 9 -11 10 -26 16 -33 13 -7 -2 -25 2 -40 10
-16 7 -28 11 -28 7 0 -3 -12 1 -26 11 -18 11 -24 12 -18 4 6 -12 5 -12 -9 0
-9 7 -17 10 -17 6 0 -4 -7 -2 -15 5 -8 6 -19 9 -25 5 -5 -3 -10 -2 -10 4 0 6
-7 8 -15 5 -8 -4 -15 -1 -15 6 0 6 -4 9 -9 5 -5 -3 -13 -1 -16 5 -4 7 -11 8
-18 1 -14 -11 -51 11 -39 25 4 4 -1 2 -10 -5 -10 -7 -18 -10 -18 -5 0 5 -12
10 -26 11 -15 0 -30 7 -35 15 -7 10 -9 10 -9 -2 0 -12 -2 -13 -9 -1 -5 7 -14
10 -20 7 -6 -4 -11 -2 -11 4 0 6 -5 8 -10 5 -6 -4 -17 -1 -25 5 -8 7 -24 10
-36 7 -12 -3 -22 0 -26 9 -3 8 -9 14 -15 14 -5 0 -7 -4 -4 -8 3 -5 -1 -9 -9
-9 -8 0 -12 4 -10 8 3 3 -4 9 -15 12 -11 3 -18 1 -14 -4 3 -5 -7 -4 -22 1 -15
6 -34 8 -41 6 -8 -3 -11 -1 -8 4 5 9 -18 15 -28 8 -2 -2 -12 4 -22 12 -17 13
-18 13 -11 0 4 -8 0 -6 -8 4 -11 14 -16 15 -16 6 0 -10 -3 -11 -11 -3 -6 6
-18 9 -25 6 -8 -3 -14 0 -14 7 0 10 -3 10 -14 1 -10 -8 -16 -9 -21 -1 -3 5
-17 10 -31 10 -13 0 -24 6 -24 13 0 8 -4 7 -10 -3 -5 -8 -10 -10 -10 -4 0 6
-6 11 -12 11 -7 0 -35 4 -63 8 -27 4 -59 9 -70 10 -11 2 -21 4 -22 5 -2 2 -6
3 -10 4 -5 1 -14 5 -22 10 -11 7 -12 6 -6 -5 8 -12 6 -12 -8 0 -9 7 -24 11
-32 7 -8 -3 -15 -1 -15 4 0 6 -5 10 -11 10 -5 0 -7 -5 -3 -11 4 -8 0 -8 -15 0
-12 7 -26 9 -31 6 -6 -3 -10 -1 -10 5 0 8 -6 7 -21 -1 -15 -8 -19 -8 -15 0 8
12 8 12 -44 15 -19 1 -41 5 -48 10 -7 4 -20 2 -29 -6 -9 -7 -14 -8 -10 -2 4 7
-7 11 -30 12 -19 1 -41 6 -47 12 -9 6 -16 6 -24 -2 -7 -7 -12 -8 -12 -2 0 5
-21 10 -48 11 -55 2 -79 6 -88 16 -4 4 -13 2 -21 -4 -10 -9 -13 -8 -13 1 0 8
-3 10 -6 7 -4 -3 -16 -1 -28 5 -19 10 -20 10 -7 -5 12 -16 11 -16 -23 -2 -22
9 -36 11 -36 5 0 -6 -12 -3 -27 7 -23 15 -26 15 -15 2 11 -14 9 -16 -13 -11
-14 2 -22 9 -18 15 4 6 1 7 -8 2 -19 -13 -49 -13 -56 -2 -3 5 -9 3 -14 -4 -5
-9 -9 -10 -9 -2 0 6 -9 9 -22 5 -16 -4 -19 -2 -13 9 5 8 -1 6 -13 -5 -20 -17
-22 -18 -28 -2 -5 14 -9 15 -15 4 -7 -10 -9 -10 -9 1 0 11 -4 9 -15 -5 -9 -11
-13 -13 -10 -4 4 12 -7 15 -66 15 -39 0 -73 4 -76 9 -3 4 -9 2 -14 -5 -7 -11
-9 -11 -9 -1 0 9 -5 10 -19 2 -13 -7 -22 -7 -26 0 -4 7 -12 7 -25 0 -13 -7
-21 -7 -26 1 -4 8 -9 7 -15 -2 -6 -9 -9 -10 -9 -2 0 8 -22 11 -70 10 -39 -1
-72 2 -74 8 -3 6 -5 4 -5 -3 -1 -7 -5 -11 -9 -8 -7 4 -150 9 -195 7 -12 -1
-16 -5 -11 -13 6 -10 4 -10 -8 0 -18 14 -109 12 -120 -3 -5 -6 -8 -5 -8 4 0
11 -3 11 -17 0 -15 -12 -16 -12 -10 4 8 21 3 22 -17 1z m11 -1192 c16 1 35 -2
43 -7 13 -8 13 -7 1 8 -13 16 -12 17 14 7 22 -8 30 -8 37 2 4 8 8 9 8 2 0 -6
12 -10 28 -10 15 1 33 -3 40 -8 7 -5 12 -4 12 3 0 7 9 9 23 6 12 -3 72 -7 134
-8 62 -2 115 -6 119 -10 4 -4 12 -7 18 -7 6 0 4 5 -4 10 -8 5 -10 10 -4 10 6
0 14 -3 18 -7 4 -4 21 -8 39 -8 18 0 38 -4 46 -9 11 -7 13 -5 9 6 -4 8 0 15 8
15 7 0 11 -4 8 -9 -5 -8 3 -10 69 -10 20 0 37 -5 37 -12 0 -6 5 -4 10 4 8 12
10 12 10 1 0 -11 3 -11 15 -1 8 7 15 8 15 3 0 -5 14 -10 30 -11 58 -3 65 -5
72 -16 5 -7 8 -6 8 3 0 11 3 11 17 0 14 -12 15 -12 9 -1 -7 11 -4 12 10 4 11
-5 29 -8 42 -7 12 1 22 -3 22 -9 0 -6 5 -4 10 4 8 12 10 12 10 1 0 -9 8 -12
25 -9 14 3 25 2 25 -1 0 -6 41 -12 92 -14 15 -1 24 -5 22 -9 -3 -4 9 -6 25 -4
23 2 31 -1 31 -13 0 -11 3 -12 8 -4 8 13 52 14 52 1 0 -4 12 -6 28 -4 15 1 36
-5 46 -13 16 -13 18 -14 11 -1 -8 13 -6 13 8 1 9 -7 24 -11 32 -7 8 3 15 1 15
-5 0 -6 6 -9 14 -6 7 3 19 0 25 -6 6 -6 11 -7 11 -1 0 5 5 2 10 -6 7 -11 10
-11 10 -2 0 10 5 10 20 2 11 -6 25 -8 30 -5 6 3 10 2 10 -3 0 -5 6 -9 13 -10
36 -3 68 -9 74 -15 3 -4 19 -7 35 -7 15 0 28 -4 28 -10 0 -5 12 -10 26 -10 17
0 23 -4 18 -12 -5 -9 -2 -9 9 1 13 11 20 11 32 1 8 -6 19 -9 25 -5 5 3 10 -2
10 -12 0 -14 2 -15 9 -4 6 10 10 10 16 1 4 -6 13 -9 21 -6 8 3 14 1 14 -5 0
-5 6 -9 13 -7 6 1 23 -4 36 -11 19 -11 22 -11 15 1 -4 7 3 4 16 -7 13 -11 20
-15 17 -8 -5 8 -1 8 18 0 14 -7 25 -15 25 -19 0 -5 5 -8 11 -8 5 0 8 4 5 8 -3
5 1 9 9 9 8 0 13 -5 12 -11 -1 -5 7 -10 18 -11 28 -2 65 -16 65 -24 0 -4 6 -8
13 -9 49 -4 57 -7 52 -21 -4 -11 -2 -11 9 -2 11 9 15 8 20 -5 5 -13 9 -14 21
-4 12 10 15 10 15 0 0 -6 6 -10 13 -7 6 2 17 -2 22 -10 6 -8 20 -15 33 -16 12
0 22 -5 22 -10 0 -4 5 -5 10 -2 6 3 10 1 10 -5 0 -6 4 -9 9 -6 5 3 22 -1 37
-9 16 -8 35 -15 42 -15 6 0 12 -4 12 -9 0 -6 9 -8 20 -6 11 2 23 -1 26 -7 5
-7 2 -8 -6 -3 -8 5 -11 4 -7 -3 4 -5 18 -9 32 -8 13 2 22 -1 19 -5 -3 -5 4 -9
15 -9 12 0 21 -4 21 -10 0 -5 9 -10 20 -10 11 0 20 -5 20 -11 0 -5 4 -8 9 -4
5 3 12 1 16 -5 3 -5 15 -15 27 -21 14 -8 18 -8 14 0 -8 12 55 -19 65 -32 3 -5
8 -8 10 -7 10 5 79 -30 79 -40 0 -6 4 -9 9 -6 5 4 38 -10 74 -29 35 -19 68
-31 72 -27 5 4 5 1 1 -5 -5 -9 0 -13 14 -13 12 0 18 -4 15 -10 -3 -5 3 -10 14
-10 12 0 21 -4 21 -9 0 -5 14 -12 30 -16 17 -4 30 -11 30 -16 0 -6 5 -7 10 -4
6 3 10 -1 10 -9 0 -9 3 -16 8 -15 15 2 52 -14 52 -22 0 -5 9 -9 21 -9 13 0 18
-4 13 -12 -5 -8 -2 -9 9 -5 11 4 17 1 17 -9 0 -8 4 -13 9 -9 5 3 16 -1 24 -9
8 -8 17 -12 21 -9 3 4 6 1 6 -5 0 -6 9 -14 20 -17 11 -4 18 -11 15 -16 -3 -5
0 -6 8 -3 8 3 27 -7 43 -23 15 -15 29 -27 31 -25 9 7 23 0 23 -14 0 -8 5 -12
10 -9 10 6 92 -46 121 -77 9 -10 19 -15 23 -11 3 3 6 1 6 -6 0 -7 5 -9 10 -6
6 3 10 1 10 -5 0 -6 5 -8 10 -5 6 4 9 1 8 -6 -2 -7 4 -14 12 -14 8 0 14 -6 13
-13 -2 -7 0 -11 5 -10 13 5 52 -29 44 -38 -4 -4 2 -2 12 6 13 10 17 10 12 3
-4 -8 -1 -13 9 -13 9 0 13 -4 10 -10 -3 -5 -1 -10 5 -10 10 0 21 -7 54 -37 8
-7 16 -9 20 -6 3 4 6 -1 6 -11 0 -9 5 -14 10 -11 6 3 10 -1 10 -10 0 -9 5 -13
10 -10 6 3 10 1 10 -6 0 -7 3 -10 6 -7 3 3 16 -4 29 -16 60 -53 71 -62 88 -69
9 -3 17 -14 17 -24 0 -15 2 -16 10 -3 8 13 10 13 10 -2 0 -9 5 -20 12 -24 7
-5 9 -2 4 7 -5 8 5 -1 22 -18 16 -18 38 -33 48 -33 12 0 15 -3 8 -8 -9 -5 -8
-11 2 -20 8 -7 14 -10 14 -6 0 3 18 -12 39 -34 22 -22 42 -38 45 -34 3 3 6 0
6 -7 0 -7 5 -9 12 -5 8 5 9 2 5 -10 -4 -10 -3 -15 3 -11 6 3 10 1 10 -4 0 -6
8 -11 18 -11 14 0 15 -2 2 -10 -13 -8 -12 -10 3 -10 9 0 17 -7 17 -15 0 -8 7
-15 15 -15 8 0 15 -4 15 -9 0 -5 9 -13 20 -16 11 -3 20 -14 20 -22 0 -9 3 -14
6 -10 9 9 54 -44 47 -56 -3 -6 -1 -7 6 -3 12 8 44 -18 34 -28 -4 -3 -1 -6 5
-6 16 0 52 -41 46 -51 -3 -5 3 -6 13 -2 10 3 15 3 11 -2 -8 -8 28 -45 44 -45
4 0 7 -3 7 -7 -3 -17 1 -36 7 -31 6 7 74 -53 74 -65 0 -5 14 -20 30 -34 17
-13 30 -29 30 -34 0 -11 26 -42 88 -104 24 -24 41 -49 37 -54 -4 -7 3 -11 17
-11 16 0 19 -3 10 -9 -10 -6 -9 -11 4 -22 16 -12 17 -12 9 1 -5 9 -5 12 1 7 5
-5 9 -12 9 -15 0 -14 32 -52 38 -45 4 3 7 -1 7 -11 0 -21 25 -48 35 -38 5 4 5
2 1 -5 -3 -6 -2 -14 4 -18 6 -4 7 -12 4 -18 -4 -7 -4 -9 1 -5 8 8 23 -6 42
-37 6 -11 16 -19 23 -17 6 1 8 -3 4 -9 -4 -7 3 -20 17 -31 13 -11 17 -16 9
-12 -13 6 6 -22 30 -46 3 -3 11 -17 19 -32 8 -16 20 -28 27 -28 8 0 11 -8 9
-20 -2 -11 -1 -19 3 -17 4 2 15 -4 24 -14 12 -12 13 -19 5 -23 -7 -2 -4 -5 6
-5 10 -1 16 -5 13 -10 -3 -5 6 -21 20 -36 14 -15 23 -33 20 -41 -3 -8 0 -11
10 -7 13 5 20 -13 15 -40 -1 -5 3 -6 9 -2 5 3 10 -1 10 -9 0 -9 5 -16 11 -16
5 0 7 -4 4 -10 -3 -5 1 -10 9 -10 9 0 16 -5 16 -11 0 -5 -6 -7 -12 -4 -7 4 1
-6 17 -20 17 -15 23 -24 15 -19 -11 5 -10 2 3 -13 9 -11 17 -25 17 -31 0 -7 5
-12 10 -12 6 0 10 -6 10 -14 0 -8 4 -16 10 -18 5 -1 11 -13 13 -24 1 -12 11
-29 20 -38 15 -16 18 -24 16 -42 0 -3 9 -14 20 -23 11 -10 18 -21 14 -25 -3
-3 -1 -6 6 -6 7 0 9 -4 6 -10 -3 -5 -1 -10 5 -10 6 0 8 -4 5 -10 -3 -5 -1 -10
5 -10 6 0 8 -4 5 -10 -3 -5 -2 -10 2 -10 5 0 14 -9 21 -21 11 -17 11 -20 0
-13 -7 4 -5 -2 5 -13 9 -11 14 -23 10 -26 -3 -4 -1 -7 5 -7 7 0 12 -7 12 -15
0 -8 5 -15 10 -15 6 0 10 -9 10 -20 0 -11 5 -20 11 -20 5 0 7 -5 4 -10 -3 -6
1 -17 9 -26 9 -9 14 -20 11 -25 -4 -5 1 -9 11 -9 11 0 15 -6 12 -18 -3 -10 1
-23 9 -30 7 -7 11 -17 8 -23 -4 -5 1 -9 11 -9 13 0 14 -3 4 -15 -9 -10 -9 -15
-1 -15 6 0 11 -7 11 -15 0 -8 6 -15 13 -16 9 0 9 -2 -1 -6 -9 -4 -8 -9 6 -21
11 -10 18 -25 16 -34 -1 -10 3 -18 10 -18 7 0 13 -6 14 -12 0 -7 3 -22 6 -33
2 -11 5 -24 5 -28 1 -5 6 -5 11 -2 6 4 10 3 9 -2 -1 -4 3 -21 9 -36 7 -16 10
-33 6 -38 -3 -5 -2 -9 3 -9 8 0 33 -62 35 -87 1 -7 5 -13 10 -13 5 0 6 -4 3
-10 -3 -5 -1 -10 5 -10 6 0 8 -4 5 -10 -3 -5 -2 -10 3 -10 5 0 9 -7 10 -15 1
-8 3 -22 4 -30 1 -8 5 -15 10 -15 5 0 7 -4 3 -9 -3 -5 2 -16 10 -24 17 -17 20
-31 5 -22 -5 3 -3 -7 5 -21 8 -15 12 -31 9 -36 -3 -4 -1 -8 4 -8 6 0 13 -7 16
-16 3 -8 2 -12 -4 -9 -5 3 -3 -7 5 -22 8 -15 15 -34 15 -41 0 -7 4 -11 8 -8 4
2 8 -4 8 -15 0 -10 -4 -19 -9 -19 -5 0 1 -9 14 -21 13 -11 18 -18 12 -14 -7 3
-13 2 -13 -4 0 -5 5 -11 10 -13 6 -2 11 -17 13 -35 1 -17 6 -29 11 -25 5 3 7
-5 4 -16 -4 -13 -1 -22 5 -22 7 0 5 -5 -3 -10 -13 -8 -12 -10 3 -10 10 0 17
-6 16 -12 -4 -30 2 -59 10 -54 5 3 9 -4 8 -17 0 -28 9 -73 20 -89 4 -7 6 -21
5 -30 -2 -10 1 -18 7 -18 6 0 11 -10 11 -22 0 -41 3 -58 12 -58 4 0 8 -5 8
-11 0 -5 -4 -8 -8 -5 -5 3 -9 -1 -9 -9 0 -8 4 -12 9 -8 6 3 9 -3 8 -13 -1 -11
-1 -22 0 -26 1 -5 4 -12 5 -18 1 -5 4 -12 5 -15 1 -3 3 -13 4 -22 1 -10 7 -28
14 -40 7 -13 8 -24 2 -28 -5 -3 -7 -12 -4 -20 4 -8 10 -12 15 -9 5 3 6 -2 2
-11 -3 -10 0 -21 8 -26 8 -5 9 -9 3 -9 -6 0 -11 -7 -11 -15 0 -8 5 -15 10 -15
5 0 7 -9 4 -20 -3 -11 0 -20 6 -21 8 0 8 -2 0 -6 -9 -3 -10 -10 -3 -22 5 -10
6 -21 3 -25 -3 -3 0 -6 8 -6 11 0 11 -2 -1 -10 -13 -9 -13 -10 0 -10 13 0 13
-1 0 -10 -10 -6 -11 -10 -2 -10 7 0 12 -13 12 -30 0 -16 5 -30 11 -30 8 0 8
-5 -1 -15 -7 -8 -9 -15 -4 -15 8 0 11 -15 14 -97 1 -18 7 -33 14 -33 6 0 4 -5
-4 -10 -8 -5 -10 -10 -4 -10 6 0 10 -12 9 -27 -1 -16 2 -36 8 -47 6 -13 5 -21
-4 -27 -10 -6 -11 -9 -1 -9 6 0 12 -5 12 -11 0 -5 -6 -7 -12 -3 -7 4 -5 -1 4
-12 11 -13 14 -24 8 -34 -5 -8 -5 -21 -2 -29 4 -9 7 -25 7 -36 -1 -11 3 -25 7
-32 5 -6 5 -14 -2 -18 -5 -3 -10 -11 -10 -16 0 -6 3 -8 8 -5 4 2 7 -21 6 -52
0 -32 3 -65 9 -76 6 -13 6 -16 -2 -12 -14 9 -14 0 -1 -25 8 -14 7 -19 -2 -19
-8 0 -9 -3 -3 -8 15 -11 17 -74 2 -65 -9 5 -9 3 -1 -8 6 -8 10 -23 8 -33 -1
-11 0 -25 4 -30 13 -21 9 -47 -6 -41 -11 4 -12 2 -5 -7 16 -21 22 -58 10 -58
-7 0 -5 -5 3 -10 9 -6 11 -10 3 -10 -8 0 -10 -7 -5 -20 4 -11 5 -51 2 -91 -3
-39 -1 -73 4 -76 5 -3 1 -10 -8 -15 -11 -6 -14 -14 -8 -21 13 -18 13 -59 0
-51 -7 5 -8 2 -2 -7 12 -20 14 -39 3 -39 -6 0 -7 -6 0 -17 5 -10 5 -26 0 -40
-6 -16 -5 -23 4 -23 8 0 8 -3 2 -8 -6 -4 -10 -14 -10 -22 1 -8 -3 -20 -7 -27
-5 -6 -5 -14 2 -18 6 -3 8 -10 5 -15 -3 -5 -7 -41 -9 -80 -2 -39 -6 -73 -9
-77 -4 -3 -2 -14 4 -24 7 -14 6 -19 -3 -19 -10 0 -10 -2 0 -9 11 -6 10 -10 -3
-15 -14 -5 -15 -9 -5 -21 10 -12 10 -15 -1 -16 -10 0 -10 -2 -2 -5 7 -3 9 -12
6 -20 -3 -7 -10 -11 -16 -7 -6 4 -7 1 -2 -8 12 -19 14 -49 3 -49 -5 0 -6 -4
-3 -10 3 -5 1 -19 -5 -30 -6 -11 -7 -20 -2 -20 5 0 7 -13 4 -30 -3 -18 -9 -27
-16 -23 -7 4 -7 1 1 -7 8 -9 9 -19 2 -31 -5 -10 -8 -34 -6 -53 3 -27 1 -33
-11 -29 -12 5 -12 2 -3 -15 7 -13 7 -23 2 -27 -6 -3 -10 -13 -10 -23 -1 -40
-7 -88 -13 -97 -4 -6 -5 -25 -4 -42 1 -19 -2 -29 -8 -26 -5 4 -7 -1 -3 -10 3
-10 2 -17 -3 -17 -5 0 -7 -7 -4 -15 4 -8 2 -15 -3 -15 -5 0 -10 -10 -11 -22
-3 -48 -11 -80 -24 -95 -9 -12 -9 -15 0 -9 6 4 12 2 12 -3 0 -6 -6 -11 -12
-12 -9 0 -9 -2 1 -6 10 -4 10 -7 1 -13 -7 -4 -13 -24 -13 -44 -1 -20 -5 -36
-10 -36 -5 0 -7 -7 -3 -15 3 -8 1 -15 -5 -15 -6 0 -7 -4 -4 -10 3 -5 2 -10 -3
-10 -6 0 -8 -9 -5 -20 3 -13 0 -20 -8 -20 -11 0 -11 -2 1 -10 12 -8 12 -10 1
-10 -9 0 -12 -8 -9 -25 3 -13 1 -22 -3 -19 -5 3 -9 -2 -9 -10 0 -9 -6 -16 -12
-16 -8 0 -5 -7 6 -15 17 -13 18 -15 3 -15 -9 0 -16 -3 -16 -7 4 -26 -2 -63
-10 -59 -5 4 -8 -2 -6 -11 1 -10 -2 -27 -8 -38 -6 -11 -11 -26 -12 -33 0 -7
-7 -17 -15 -22 -12 -8 -12 -10 -1 -10 11 0 11 -3 1 -15 -6 -8 -9 -19 -5 -25 3
-5 1 -10 -5 -10 -6 0 -9 -4 -6 -9 3 -5 0 -14 -8 -20 -8 -7 -12 -21 -9 -31 3
-11 1 -20 -5 -20 -6 0 -9 -11 -8 -25 2 -13 -1 -22 -5 -19 -8 5 -10 1 -13 -32
-1 -6 -8 -20 -16 -30 -13 -16 -13 -17 0 -9 12 7 13 6 3 -7 -7 -8 -10 -18 -6
-21 3 -4 1 -7 -6 -7 -7 0 -9 -4 -6 -10 3 -5 1 -10 -5 -10 -6 0 -8 -4 -5 -10 3
-5 1 -10 -6 -10 -7 0 -9 -3 -6 -7 4 -3 1 -13 -6 -21 -10 -13 -9 -15 3 -8 8 4
6 0 -4 -8 -11 -9 -16 -16 -12 -16 5 0 2 -8 -5 -17 -12 -14 -12 -16 1 -9 8 4 6
0 -4 -8 -15 -12 -16 -16 -5 -16 10 -1 8 -4 -5 -11 -15 -9 -16 -13 -5 -20 9 -6
10 -9 2 -9 -6 0 -19 -20 -28 -45 -11 -27 -22 -42 -29 -38 -6 4 -5 -1 3 -10 12
-15 11 -17 -5 -17 -16 0 -17 -2 -4 -10 10 -6 11 -10 3 -10 -7 0 -13 -9 -13
-20 0 -11 -4 -20 -10 -20 -5 0 -10 -7 -10 -15 0 -8 -5 -15 -11 -15 -8 0 -7 -6
2 -17 12 -14 12 -16 0 -8 -11 6 -13 3 -8 -14 4 -18 3 -20 -8 -11 -10 9 -13 7
-11 -7 2 -10 -5 -31 -15 -47 -10 -16 -16 -33 -13 -38 3 -4 -2 -11 -10 -14 -9
-3 -13 -10 -10 -15 3 -5 0 -9 -5 -9 -6 0 -11 -11 -11 -25 0 -14 -3 -24 -7 -24
-20 3 -26 -2 -13 -11 10 -6 11 -10 3 -10 -7 0 -13 -6 -13 -14 0 -8 -8 -17 -17
-20 -15 -6 -15 -8 -3 -16 10 -7 11 -10 3 -10 -7 0 -13 -6 -13 -14 0 -8 -5 -16
-10 -18 -6 -2 -12 -13 -13 -25 0 -12 -5 -19 -9 -17 -4 3 -8 0 -8 -5 0 -18 -3
-26 -17 -39 -7 -8 -11 -17 -8 -22 3 -4 -2 -11 -11 -14 -9 -4 -14 -13 -10 -21
3 -10 -1 -15 -11 -15 -9 0 -13 -3 -10 -6 4 -4 -3 -20 -14 -35 -11 -16 -17 -34
-14 -39 4 -6 3 -9 -2 -8 -4 2 -9 -1 -11 -7 -2 -5 -10 -17 -18 -26 -8 -9 -11
-19 -7 -22 3 -4 1 -7 -6 -7 -8 0 -11 -6 -7 -16 5 -14 4 -15 -9 -4 -13 11 -14
10 -9 -4 3 -9 1 -16 -6 -16 -6 0 -8 -4 -5 -10 3 -5 1 -10 -5 -10 -6 0 -8 -5
-5 -10 3 -6 -1 -13 -9 -16 -9 -3 -16 -12 -16 -20 0 -7 -8 -17 -17 -23 -10 -5
-15 -13 -11 -16 4 -4 3 -12 -2 -19 -49 -60 -59 -74 -53 -80 3 -3 1 -6 -6 -6
-8 0 -11 -7 -7 -15 3 -8 2 -14 -2 -14 -19 3 -33 -2 -27 -11 3 -5 -4 -19 -15
-30 -11 -11 -18 -26 -14 -33 4 -7 4 -9 0 -5 -4 3 -16 -1 -25 -10 -13 -13 -15
-21 -7 -31 8 -11 8 -13 -1 -8 -7 5 -19 -3 -30 -20 -10 -15 -22 -31 -27 -34 -5
-4 -6 -15 -2 -24 6 -16 4 -16 -11 -4 -9 8 -14 9 -10 2 4 -6 -1 -18 -10 -25
-10 -7 -19 -20 -21 -28 -2 -8 -13 -23 -25 -33 -12 -10 -16 -15 -8 -11 9 5 12
3 7 -4 -4 -7 -14 -12 -22 -12 -8 0 -12 -5 -9 -10 3 -6 -1 -13 -9 -16 -9 -3
-14 -9 -11 -13 2 -4 -5 -14 -16 -21 -10 -8 -19 -20 -19 -27 0 -7 -7 -13 -15
-13 -9 0 -12 -6 -8 -17 5 -12 2 -15 -9 -11 -10 4 -15 1 -14 -10 0 -9 -5 -16
-12 -14 -6 1 -11 -1 -11 -5 3 -20 -2 -34 -10 -29 -5 3 -14 -8 -21 -24 -7 -16
-20 -32 -31 -35 -10 -3 -21 -14 -24 -25 -3 -10 -17 -25 -30 -34 -14 -9 -25
-23 -25 -31 0 -8 -4 -15 -10 -15 -5 0 -10 -7 -10 -16 0 -14 -3 -14 -16 -4 -8
8 -14 9 -13 4 3 -19 -1 -47 -7 -41 -8 7 -34 -17 -34 -32 0 -6 -5 -11 -11 -11
-5 0 -7 -6 -3 -12 5 -8 0 -7 -11 2 -16 13 -18 13 -13 0 3 -9 -18 -37 -53 -72
-31 -31 -54 -60 -51 -64 4 -4 -1 -4 -11 -1 -10 4 -16 3 -12 -2 3 -5 -3 -16
-13 -23 -10 -7 -21 -21 -25 -31 -4 -10 -11 -15 -17 -12 -6 3 -13 -1 -16 -9 -3
-9 -14 -16 -23 -16 -14 0 -14 -2 -1 -10 12 -8 12 -10 1 -10 -15 0 -87 -70 -84
-81 1 -4 -5 -6 -15 -5 -9 0 -17 -5 -17 -11 0 -7 -3 -13 -7 -13 -4 0 -23 -15
-42 -33 -18 -17 -43 -38 -54 -46 -12 -8 -19 -18 -16 -23 3 -4 -3 -5 -13 -1
-10 3 -15 2 -11 -2 8 -9 -32 -42 -45 -37 -5 1 -6 -2 -2 -8 3 -5 -1 -13 -9 -16
-9 -3 -13 -11 -10 -16 4 -6 1 -9 -7 -6 -16 5 -39 -14 -39 -34 0 -10 -3 -9 -10
2 -8 13 -10 12 -10 -3 0 -10 -11 -22 -24 -26 -13 -5 -26 -17 -30 -26 -3 -9
-10 -13 -16 -10 -6 3 -13 -1 -16 -9 -3 -9 -10 -13 -15 -10 -5 3 -9 -2 -9 -11
0 -11 -5 -15 -15 -11 -13 5 -19 -5 -16 -26 0 -4 -7 -4 -16 -1 -11 4 -14 3 -9
-5 6 -11 -11 -17 -36 -13 -4 0 -4 -7 -1 -16 4 -10 2 -14 -4 -10 -6 4 -27 -8
-46 -27 -20 -19 -38 -31 -41 -28 -3 3 -17 -7 -31 -22 -14 -15 -25 -23 -25 -19
0 4 -10 -3 -21 -17 -11 -14 -18 -19 -14 -12 6 11 3 11 -14 0 -12 -7 -21 -18
-21 -23 0 -6 -9 -11 -21 -12 -11 -1 -29 -11 -38 -22 -10 -11 -21 -18 -25 -14
-3 3 -6 -2 -6 -13 0 -16 -2 -17 -10 -4 -5 8 -10 10 -10 4 0 -12 -51 -52 -72
-56 -7 -2 -19 -10 -26 -18 -12 -13 -13 -13 -7 0 4 8 -1 6 -10 -5 -9 -11 -20
-20 -26 -20 -5 0 -13 -5 -17 -11 -7 -12 -51 -29 -65 -26 -4 1 -6 -3 -5 -10 2
-7 -3 -12 -10 -13 -7 0 -17 -7 -22 -15 -5 -8 -10 -12 -10 -7 0 4 -18 -4 -40
-18 -22 -14 -40 -22 -40 -18 0 4 -7 -2 -15 -13 -8 -10 -15 -15 -15 -10 0 6 -7
1 -16 -10 -8 -10 -12 -12 -8 -4 4 8 -3 4 -16 -8 -18 -19 -24 -21 -31 -10 -7
10 -9 9 -9 -4 0 -13 -18 -24 -68 -39 -4 -2 -13 -9 -20 -16 -7 -7 -22 -13 -33
-13 -10 0 -19 -4 -19 -8 0 -5 -16 -14 -35 -22 -19 -8 -35 -18 -35 -22 0 -5 -5
-6 -10 -3 -6 3 -13 -1 -16 -9 -3 -9 -11 -13 -16 -10 -6 4 -14 1 -18 -6 -4 -6
-19 -13 -34 -13 -14 -1 -26 -6 -26 -10 0 -5 -4 -5 -10 -2 -5 3 -10 -1 -10 -10
0 -9 -4 -14 -9 -11 -10 7 -61 -16 -61 -28 0 -5 -7 -3 -16 4 -12 11 -15 11 -12
-1 2 -8 -3 -13 -11 -11 -7 2 -25 -7 -39 -20 -14 -13 -22 -17 -17 -9 5 9 -1 7
-19 -4 -14 -10 -26 -14 -26 -10 0 4 -7 2 -15 -5 -8 -6 -20 -8 -26 -4 -8 4 -9
3 -5 -4 6 -10 -7 -17 -16 -10 -2 1 -25 -11 -51 -25 -27 -15 -46 -23 -42 -17 3
6 0 7 -9 4 -9 -3 -13 -11 -9 -18 4 -6 -2 -4 -12 4 -11 9 -16 10 -11 3 6 -12
-18 -19 -47 -14 -5 1 -6 -3 -2 -9 3 -5 4 -10 1 -10 -2 0 -12 -3 -22 -7 -13 -5
-15 -3 -9 8 5 8 1 7 -12 -4 -11 -9 -23 -14 -26 -10 -4 3 -7 1 -7 -6 0 -7 -4
-10 -9 -6 -5 3 -12 1 -16 -5 -4 -6 -11 -8 -16 -5 -5 4 -9 0 -9 -7 0 -10 -2
-10 -9 1 -7 12 -12 11 -30 -1 -11 -8 -18 -19 -13 -24 4 -4 -1 -2 -10 5 -13 10
-18 10 -18 1 0 -6 -6 -10 -12 -8 -7 3 -19 -2 -26 -9 -8 -8 -23 -11 -34 -7 -13
4 -18 2 -14 -4 3 -5 -3 -12 -14 -15 -13 -3 -18 -1 -13 6 4 7 -1 6 -10 -2 -9
-7 -26 -11 -36 -8 -14 3 -18 1 -14 -10 4 -10 -1 -13 -20 -9 -14 2 -35 -3 -48
-12 -17 -12 -20 -12 -14 -1 5 9 1 7 -11 -3 -15 -13 -23 -15 -32 -6 -9 9 -13 7
-18 -6 -5 -14 -9 -14 -22 -4 -12 10 -14 10 -8 1 7 -13 -4 -17 -33 -14 -7 2
-11 -2 -7 -7 3 -5 -1 -9 -9 -9 -8 0 -15 5 -15 11 0 6 -4 5 -9 -3 -5 -8 -19
-12 -34 -9 -18 4 -24 1 -20 -9 6 -15 -13 -18 -22 -3 -4 6 -15 4 -30 -6 -13 -9
-30 -14 -37 -11 -7 2 -25 -2 -39 -9 -15 -7 -29 -10 -33 -7 -3 4 -6 0 -6 -8 0
-12 -2 -12 -9 0 -8 12 -12 12 -25 2 -8 -7 -28 -13 -45 -13 -17 -1 -28 -5 -24
-11 3 -5 -4 -4 -15 2 -15 8 -23 8 -28 0 -3 -6 -17 -9 -30 -6 -13 2 -24 0 -24
-5 0 -6 -7 -8 -15 -5 -8 4 -17 2 -20 -3 -3 -4 -16 -7 -30 -5 -14 1 -25 -2 -25
-7 0 -5 -4 -7 -8 -4 -4 2 -14 1 -22 -4 -8 -5 -19 -5 -26 1 -8 6 -14 4 -18 -7
-5 -13 -9 -14 -21 -4 -8 7 -15 8 -15 3 0 -5 -15 -8 -32 -7 -18 1 -39 -2 -45
-8 -9 -8 -13 -7 -13 3 0 11 -2 11 -10 -1 -8 -12 -10 -12 -10 -1 0 9 -4 10 -12
4 -13 -10 -51 -15 -100 -15 -18 0 -25 -4 -21 -12 4 -6 -1 -5 -10 3 -14 11 -17
11 -17 0 0 -10 -3 -10 -12 -1 -9 9 -15 9 -26 -1 -12 -10 -16 -9 -20 2 -3 9 -7
10 -11 2 -4 -6 -42 -12 -84 -14 -42 -2 -80 -6 -83 -10 -12 -12 -26 -8 -18 6 6
9 4 9 -7 2 -8 -6 -59 -11 -114 -10 -56 0 -103 -4 -107 -10 -5 -6 -8 -5 -8 3 0
8 -5 10 -12 6 -7 -5 -30 -7 -51 -5 -31 2 -37 0 -31 -11 7 -11 5 -11 -9 0 -9 8
-25 11 -38 7 -16 -5 -19 -4 -14 5 6 9 4 11 -5 5 -6 -4 -42 -7 -79 -6 -36 1
-112 3 -168 4 -57 1 -103 6 -103 11 0 4 -7 3 -15 -4 -8 -7 -15 -9 -15 -4 0 5
-32 10 -72 12 -39 1 -78 8 -86 15 -11 8 -14 9 -9 0 5 -8 0 -11 -13 -10 -11 1
-20 6 -20 11 0 5 -7 1 -15 -10 -10 -13 -13 -14 -10 -3 4 12 0 15 -17 14 -13
-1 -29 2 -35 8 -9 6 -13 6 -13 -3 0 -10 -3 -10 -15 0 -12 10 -15 10 -16 -1 0
-10 -2 -10 -5 -2 -3 7 -12 9 -20 6 -8 -3 -14 -1 -14 4 0 11 -30 11 -48 -1 -7
-4 -12 -2 -12 4 0 6 -5 8 -11 4 -6 -3 -15 0 -20 7 -6 10 -9 10 -9 2 0 -9 -7
-10 -22 -4 -13 4 -29 6 -37 3 -9 -3 -11 0 -6 8 6 9 3 9 -14 1 -16 -9 -21 -9
-21 0 0 9 -3 9 -14 0 -11 -9 -16 -9 -22 0 -5 8 -3 9 6 4 8 -5 11 -4 6 3 -3 6
-18 9 -32 6 -14 -3 -31 -1 -38 4 -6 5 -21 8 -33 7 -13 -1 -23 2 -23 6 0 4 -9
5 -20 2 -13 -3 -20 0 -20 8 0 11 -2 11 -10 -1 -6 -10 -10 -11 -10 -2 0 6 -5
12 -11 12 -5 0 -7 -6 -3 -12 5 -8 1 -7 -10 2 -10 8 -35 15 -55 16 -20 0 -56 7
-81 14 -59 18 -71 20 -97 23 -13 1 -23 6 -23 11 0 5 -3 6 -7 3 -3 -4 -12 -2
-20 4 -9 9 -13 8 -13 0 0 -6 -5 -11 -11 -11 -5 0 -7 5 -3 12 5 8 2 9 -9 5 -10
-4 -17 -1 -18 6 0 8 -2 7 -6 -2 -4 -9 -8 -10 -12 -2 -4 6 -19 12 -34 13 -15 1
-27 5 -27 8 0 3 -12 7 -27 8 -15 1 -29 6 -32 11 -3 4 -14 7 -23 5 -10 -1 -18
2 -18 7 0 4 -7 5 -17 2 -12 -5 -14 -3 -8 7 6 10 4 12 -10 7 -9 -4 -25 -2 -33
5 -12 10 -14 10 -8 1 10 -18 1 -16 -18 3 -12 12 -16 12 -16 2 0 -10 -2 -10 -8
-1 -5 7 -20 14 -35 15 -15 1 -29 8 -31 15 -3 7 -12 10 -21 7 -8 -3 -15 -1 -15
5 0 6 -3 10 -7 10 -29 -5 -53 2 -47 14 5 8 2 8 -9 -2 -9 -7 -17 -9 -17 -3 0 5
-7 13 -16 16 -8 3 -12 2 -9 -4 3 -6 -1 -7 -9 -4 -9 3 -13 11 -9 17 3 6 1 7 -5
3 -7 -4 -18 -4 -24 1 -7 4 -15 8 -18 9 -32 6 -60 18 -60 26 0 5 -4 7 -9 4 -15
-9 -42 5 -34 18 4 6 -1 5 -10 -3 -11 -9 -17 -10 -17 -2 0 6 -6 11 -13 11 -18
0 -67 23 -67 32 0 4 -6 5 -14 2 -8 -3 -17 0 -21 5 -3 6 -11 9 -16 6 -5 -4 -9
-1 -9 6 0 8 -4 8 -16 -1 -12 -11 -15 -11 -12 1 2 9 -5 14 -19 13 -12 0 -20 3
-17 8 3 4 -4 8 -15 8 -12 0 -21 5 -21 10 0 6 -7 10 -15 10 -8 0 -15 5 -15 11
0 8 -5 8 -15 -1 -12 -10 -15 -9 -15 4 0 10 -4 15 -9 11 -5 -3 -15 1 -23 8 -7
7 -20 12 -28 12 -8 0 -21 5 -28 12 -8 7 -18 11 -23 8 -5 -4 -9 2 -9 12 0 15
-2 16 -10 3 -6 -10 -10 -11 -10 -2 0 6 -7 12 -16 12 -8 0 -12 5 -9 10 3 6 1
10 -4 10 -6 0 -11 -5 -11 -12 0 -6 -9 -2 -21 10 -11 12 -24 20 -30 17 -5 -4
-9 -1 -9 4 0 6 -7 11 -16 11 -9 0 -27 9 -41 20 -14 11 -29 17 -34 14 -5 -3 -9
0 -9 6 0 6 -4 8 -10 5 -5 -3 -10 0 -10 9 0 8 -8 13 -17 12 -10 -2 -26 6 -35
17 -10 11 -18 15 -18 8 0 -7 -5 -9 -10 -6 -6 4 -8 11 -4 16 3 5 2 9 -3 8 -9
-2 -46 12 -53 21 -3 3 -26 17 -52 30 -27 14 -48 29 -48 33 0 5 -5 5 -10 2 -6
-3 -13 0 -16 9 -3 8 -12 12 -20 9 -8 -3 -14 0 -14 7 0 7 -7 10 -15 6 -8 -3
-14 -1 -12 3 1 5 -1 8 -5 7 -4 0 -14 8 -23 19 -9 11 -13 14 -9 6 4 -7 -7 -3
-25 10 -30 22 -43 38 -19 23 7 -4 8 -3 4 4 -4 6 -13 9 -21 5 -8 -3 -15 0 -15
7 0 6 -5 8 -10 5 -6 -3 -13 1 -16 9 -3 9 -12 16 -20 16 -8 0 -14 5 -14 11 0 5
-5 7 -10 4 -6 -3 -13 1 -16 10 -4 9 -13 14 -20 11 -8 -3 -14 1 -14 9 0 8 -3
14 -7 14 -20 -3 -34 2 -28 11 3 6 -3 10 -15 10 -12 0 -18 5 -15 10 3 6 -1 10
-9 10 -9 0 -16 5 -16 10 0 6 -7 10 -15 10 -8 0 -15 5 -15 10 0 6 -4 10 -10 10
-6 0 -19 8 -29 18 -35 31 -51 43 -51 37 0 -7 -19 9 -57 45 -14 14 -22 19 -18
12 6 -11 3 -11 -13 -1 -12 7 -18 17 -16 21 3 4 -2 8 -11 8 -10 0 -13 5 -9 12
5 8 2 9 -9 5 -12 -4 -17 -1 -17 10 0 9 -3 14 -6 10 -6 -6 -24 6 -52 35 -9 10
-22 18 -29 18 -7 0 -13 7 -13 16 0 8 -4 13 -8 10 -5 -3 -14 4 -22 14 -8 10
-17 17 -22 14 -4 -3 -8 2 -8 11 0 11 -5 15 -16 11 -8 -3 -13 -2 -10 3 3 5 -1
12 -10 15 -8 3 -12 11 -8 17 4 7 3 9 -4 5 -6 -3 -29 12 -52 34 -22 22 -43 40
-46 40 -3 0 -18 13 -34 30 -15 16 -31 26 -35 22 -5 -4 -5 1 -2 11 4 11 3 16
-3 12 -6 -3 -10 -1 -10 6 0 7 -3 10 -6 6 -8 -8 -33 16 -27 26 2 4 -6 7 -18 7
-12 0 -20 3 -16 6 7 8 -17 34 -32 34 -10 0 -15 14 -12 33 1 5 -3 6 -8 3 -5 -3
-12 1 -15 10 -3 8 -10 13 -14 10 -5 -3 -14 6 -20 19 -7 14 -18 25 -27 25 -8 0
-15 5 -15 11 0 12 -60 69 -73 69 -5 0 -7 9 -4 19 3 14 1 18 -9 14 -8 -3 -14 0
-14 7 0 6 -4 8 -10 5 -5 -3 -10 0 -10 8 0 8 -7 18 -16 21 -8 3 -12 10 -9 16 3
5 -1 10 -9 10 -9 0 -23 12 -33 27 -10 16 -30 40 -45 54 -15 15 -24 29 -21 33
3 3 -1 6 -10 6 -9 0 -17 5 -17 10 0 6 -8 18 -17 28 -10 10 -24 27 -31 38 -7
10 -10 12 -7 4 4 -8 -1 -6 -9 4 -9 11 -16 26 -16 35 0 8 -3 12 -6 8 -8 -8 -33
16 -27 25 2 5 -3 8 -11 8 -8 0 -18 4 -21 10 -3 6 2 8 12 5 10 -3 8 0 -4 6 -13
7 -23 16 -23 21 0 14 -27 38 -34 30 -4 -3 -4 1 0 11 4 12 1 17 -11 17 -9 0
-13 5 -10 10 3 6 -1 13 -9 16 -9 3 -14 10 -11 14 3 4 -2 10 -10 14 -8 3 -15
13 -15 21 0 9 -4 13 -10 10 -5 -3 -10 0 -10 7 0 8 -8 21 -17 30 -29 27 -44 48
-36 48 4 0 0 5 -9 11 -10 5 -18 16 -18 23 0 7 -9 21 -20 31 -11 10 -20 23 -20
29 0 7 -9 18 -19 26 -11 7 -18 17 -16 20 7 11 -26 51 -36 44 -6 -3 -9 2 -7 12
2 12 -2 18 -10 16 -8 -1 -11 2 -8 7 3 5 -1 14 -9 21 -8 7 -12 16 -9 21 3 5 -3
9 -13 9 -15 0 -16 2 -3 10 11 7 11 10 2 10 -7 0 -10 5 -7 10 4 6 1 9 -6 8 -7
-2 -15 6 -17 17 -2 11 -14 28 -25 38 -12 10 -15 16 -7 12 8 -4 6 1 -5 10 -11
9 -19 23 -17 30 2 10 -3 13 -15 8 -14 -5 -16 -3 -6 7 10 11 9 17 -6 29 -9 9
-24 31 -32 49 -7 17 -17 32 -21 32 -5 0 -8 6 -8 13 0 8 -9 24 -20 37 -11 12
-17 27 -14 31 3 5 -2 9 -10 9 -9 0 -16 5 -16 11 0 5 6 7 13 3 6 -4 2 4 -10 18
-13 13 -23 28 -23 34 0 5 -9 20 -20 34 -11 14 -20 33 -20 43 0 11 -4 15 -12
11 -8 -5 -9 -2 -5 9 4 10 1 17 -5 17 -6 0 -9 3 -5 6 3 4 -1 13 -9 21 -8 9 -18
28 -21 44 -3 16 -9 26 -14 23 -5 -3 -9 4 -9 15 0 12 -5 21 -10 21 -6 0 -9 3
-8 8 4 18 -16 62 -28 62 -8 0 -14 5 -14 11 0 5 6 7 12 4 7 -4 6 -1 -2 7 -8 7
-15 18 -16 23 -3 23 -17 55 -25 55 -5 0 -9 9 -9 20 0 11 -4 20 -9 20 -6 0 -8
9 -6 20 2 11 1 19 -3 19 -20 -3 -25 2 -12 11 11 7 11 10 2 10 -7 0 -10 5 -7
10 3 6 1 10 -4 10 -6 0 -10 6 -9 13 2 6 -2 11 -9 10 -7 -2 -10 4 -7 12 3 8 -1
21 -10 30 -8 9 -12 23 -9 32 5 12 3 14 -7 8 -10 -6 -12 -3 -8 11 3 11 -1 25
-9 32 -11 11 -18 41 -14 65 0 4 -4 7 -10 7 -5 0 -7 5 -4 10 3 6 1 10 -6 10 -6
0 -9 8 -6 20 3 11 1 18 -4 14 -5 -3 -9 2 -9 11 0 10 -5 13 -12 9 -8 -5 -7 0 2
11 9 11 10 16 3 11 -9 -5 -13 1 -13 18 0 14 -4 26 -9 26 -6 0 -8 9 -6 19 2 11
-3 25 -11 31 -7 7 -12 16 -9 20 3 5 1 11 -4 15 -6 3 -8 12 -4 20 3 8 0 15 -7
15 -6 0 -8 5 -5 11 4 5 -1 20 -12 31 -10 12 -12 18 -5 14 6 -4 12 -2 12 3 0 6
-4 11 -10 11 -5 0 -10 11 -10 25 0 14 -5 25 -11 25 -6 0 -9 9 -6 20 3 10 -1
24 -9 31 -17 14 -19 33 -1 23 6 -4 3 2 -7 14 -11 12 -15 22 -10 22 5 0 2 5 -6
10 -13 9 -13 10 0 10 13 1 12 2 -1 10 -11 6 -15 18 -11 35 3 16 0 25 -8 25 -9
0 -9 4 1 17 8 9 9 14 3 10 -10 -6 -29 44 -25 66 0 4 -3 7 -8 7 -5 0 -7 10 -3
22 4 16 2 19 -9 13 -11 -7 -11 -5 1 10 8 10 10 16 4 12 -7 -4 -14 2 -17 13 -3
11 0 20 6 20 8 0 7 4 -2 9 -7 5 -10 14 -7 20 4 6 3 11 -2 11 -5 0 -8 11 -7 25
2 14 -1 25 -5 25 -5 0 -7 9 -5 20 2 11 -1 20 -7 20 -5 0 -8 7 -5 15 4 8 2 17
-3 20 -6 4 -10 24 -10 46 0 24 -4 38 -10 34 -6 -3 -7 1 -4 10 4 8 0 23 -7 32
-12 14 -12 16 1 8 13 -8 13 -7 1 8 -11 14 -11 17 0 17 11 0 11 2 -1 10 -9 6
-14 21 -12 41 2 17 0 29 -5 26 -5 -3 -9 3 -9 13 0 10 3 17 7 14 4 -2 1 13 -6
34 -8 23 -10 38 -4 41 6 1 2 9 -8 17 -13 9 -14 13 -4 14 10 0 11 4 3 13 -12
14 -12 15 -12 58 0 19 -4 28 -11 23 -7 -4 -7 1 1 16 9 18 9 24 0 30 -7 4 -10
12 -6 18 3 6 1 14 -5 18 -9 5 -7 11 5 19 15 12 15 13 -1 19 -15 6 -15 8 -3 16
11 7 12 10 2 10 -7 0 -10 5 -7 10 4 6 2 17 -5 25 -8 10 -8 15 1 21 9 5 7 11
-6 21 -11 7 -14 13 -9 13 6 0 7 24 4 60 -3 33 -5 71 -4 85 0 14 -3 25 -8 25
-5 0 -6 6 -2 12 12 19 12 48 1 41 -6 -4 -8 0 -4 10 3 9 1 19 -5 23 -7 4 -6 9
2 14 8 5 9 13 4 21 -4 7 -8 29 -7 49 0 19 -4 38 -11 42 -8 6 -8 8 1 8 13 0 12
18 -1 39 -6 10 -5 12 2 7 7 -4 12 -2 12 3 0 6 -6 11 -12 11 -10 0 -10 2 0 9
17 11 17 21 0 32 -11 7 -11 9 1 9 11 0 11 3 1 15 -10 12 -10 15 1 16 11 0 11
2 1 6 -10 4 -10 8 -1 19 9 11 9 14 0 14 -7 0 -9 5 -4 13 11 18 12 36 2 43 -6
3 -5 12 3 22 8 10 9 13 1 9 -13 -8 -13 39 0 60 4 6 2 15 -4 19 -8 4 -7 9 2 15
11 7 11 9 -1 9 -13 0 -13 1 0 10 12 8 12 10 1 10 -11 0 -11 3 0 17 12 15 12
16 -1 8 -13 -8 -13 -7 -1 8 11 14 11 17 0 17 -10 0 -10 3 -2 11 7 7 8 20 3 34
-5 14 -5 26 2 33 7 7 6 16 -1 30 -7 14 -8 23 -1 27 7 4 6 13 -1 27 -8 15 -8
19 0 14 8 -5 10 6 8 33 -2 23 -1 41 3 41 3 0 5 15 4 32 -1 18 2 39 8 45 7 9 7
13 -1 13 -8 0 -9 6 -4 18 5 9 8 45 8 79 0 35 3 63 7 63 3 0 4 9 1 20 -3 11 0
26 6 34 9 10 9 16 1 21 -7 4 -8 11 -2 18 5 7 8 20 7 30 -2 9 1 17 6 17 5 0 9
5 9 11 0 5 -5 7 -10 4 -5 -3 -10 -1 -10 4 0 6 4 11 8 11 11 0 9 31 -3 49 -5 9
-4 12 2 8 6 -4 13 0 17 8 3 8 1 15 -5 15 -6 0 -6 7 1 20 8 15 8 20 -2 20 -10
0 -10 2 -1 8 7 4 14 23 17 42 6 48 16 92 22 102 3 4 -1 8 -8 8 -10 0 -10 2 1
9 7 5 14 29 16 54 1 26 7 53 14 61 9 10 9 16 1 21 -7 5 -8 11 -1 19 5 6 8 24
7 38 -2 15 1 25 5 22 5 -3 9 3 9 12 0 30 32 148 44 163 8 11 8 13 -1 7 -7 -4
-13 -2 -13 3 0 6 4 11 9 11 10 0 9 19 -2 37 -6 9 -3 11 9 6 12 -4 15 -3 10 5
-4 6 -2 21 5 33 9 17 8 20 -3 13 -10 -6 -11 -5 -1 8 7 8 10 18 6 21 -3 4 0 7
7 7 7 0 11 3 7 6 -3 4 0 22 8 41 8 19 12 39 9 44 -3 5 -1 9 5 9 6 0 7 7 4 17
-4 11 -3 14 5 9 7 -4 12 -2 12 3 0 6 -6 11 -12 11 -10 0 -9 3 1 9 7 5 11 13 7
19 -3 6 2 15 11 21 14 8 15 10 3 11 -13 0 -13 1 0 10 8 5 11 10 6 10 -5 0 -2
8 5 17 10 12 10 15 1 9 -7 -4 -3 9 8 28 11 20 19 40 19 44 -4 21 2 42 10 38 5
-4 8 5 6 20 -2 19 1 24 13 19 12 -4 12 -2 4 8 -7 8 -8 17 -4 21 4 4 7 11 8 14
3 26 18 62 25 62 5 0 6 6 3 14 -3 8 0 17 5 21 6 3 9 10 6 15 -3 5 -1 11 4 15
6 3 7 13 4 22 -4 11 -3 14 5 9 8 -5 12 1 12 18 0 13 7 32 16 40 8 9 13 16 10
16 -3 0 0 14 5 30 6 17 16 30 22 30 7 0 5 5 -3 10 -10 6 -11 10 -2 10 6 0 12
9 12 19 0 11 7 26 15 34 8 8 12 17 9 20 -3 3 2 17 11 31 10 14 13 26 9 26 -5
0 -3 4 4 8 7 5 14 18 17 30 2 11 8 29 14 40 6 11 7 23 3 27 -4 5 -2 5 4 2 10
-6 26 25 21 37 -1 2 7 14 18 27 12 13 14 19 5 14 -12 -6 -13 -5 -2 6 6 7 12
21 12 32 0 10 4 16 9 13 5 -3 12 6 15 19 4 17 11 23 19 18 9 -5 9 -3 -1 9 -10
12 -10 17 1 27 8 6 17 8 21 4 4 -4 4 0 0 10 -3 9 -1 24 6 32 6 8 9 19 5 24 -3
7 0 8 9 5 11 -4 16 0 16 14 0 11 7 27 15 36 9 8 16 18 15 21 -1 21 1 25 10 20
5 -3 7 0 4 8 -3 8 2 21 10 30 8 8 12 17 9 21 -4 3 -1 6 5 6 7 0 12 7 12 15 0
8 6 15 13 15 8 0 7 4 -3 10 -13 8 -13 10 2 10 9 0 20 5 24 12 5 7 3 8 -5 3
-10 -5 -9 -2 0 13 7 12 17 18 23 15 5 -3 6 -1 2 5 -4 6 0 22 9 35 8 13 13 27
10 30 -3 4 -2 5 2 2 9 -7 35 33 29 44 -3 5 1 12 10 15 9 4 14 9 11 12 -3 3 3
14 14 25 10 10 19 26 19 35 0 8 4 13 9 10 8 -6 26 40 22 57 -1 5 3 6 9 2 5 -3
15 5 22 19 6 14 15 26 20 26 5 0 7 4 3 9 -3 5 -1 12 5 16 6 4 7 11 4 17 -4 7
-2 8 4 4 11 -7 17 6 13 27 -1 5 3 6 9 2 5 -3 14 5 20 19 5 14 14 26 20 26 6 0
8 5 5 10 -3 6 -1 10 5 10 6 0 9 4 6 9 -3 5 1 12 10 15 9 3 14 13 11 21 -4 10
-1 12 11 8 9 -3 14 -3 10 2 -4 4 0 14 10 22 11 10 12 12 2 8 -8 -3 -5 2 7 11
13 9 23 22 23 29 0 7 12 24 26 39 15 14 24 26 20 26 -4 0 2 10 14 22 11 12 20
26 20 30 0 5 5 6 10 3 6 -3 10 0 10 8 0 7 9 23 20 35 11 12 20 24 20 28 0 4
12 17 28 30 15 13 23 24 18 24 -5 0 6 14 25 31 19 18 27 29 19 24 -8 -4 4 10
27 32 24 21 43 44 43 51 0 8 5 10 12 6 8 -5 9 -2 5 9 -4 12 -1 17 10 17 9 0
13 3 10 6 -3 4 5 15 18 26 14 11 23 24 20 29 -4 5 1 9 9 9 9 0 16 7 16 16 0 8
5 12 10 9 6 -3 10 1 10 10 0 11 5 15 16 11 12 -5 14 -1 8 17 -3 12 -3 19 1 15
8 -7 71 53 67 64 -1 5 3 7 10 5 7 -1 13 5 13 13 0 8 7 14 14 12 8 -2 11 3 8
12 -4 9 -3 15 1 15 18 -3 33 2 29 9 -6 9 39 52 47 45 3 -4 6 0 6 9 0 8 15 27
34 43 19 16 32 34 28 39 -3 6 2 5 12 -3 9 -8 16 -10 15 -5 -3 19 1 35 9 30 5
-3 16 4 25 15 9 10 14 19 12 19 -3 0 0 6 7 14 7 8 16 12 20 9 5 -2 13 7 19 21
7 14 16 23 20 20 5 -3 9 0 9 6 0 6 4 9 9 5 5 -3 12 4 16 15 4 11 10 18 15 15
8 -5 25 24 21 38 -1 5 4 5 10 1 7 -4 17 0 23 8 6 8 16 16 21 17 6 2 9 7 8 12
-2 5 4 9 12 9 8 0 15 4 15 9 0 6 13 18 29 27 17 10 28 21 26 24 -2 3 10 15 28
25 18 10 36 24 40 32 4 7 14 13 22 13 7 0 26 15 40 33 15 17 24 26 20 20 -4
-9 -1 -11 9 -7 9 3 14 9 11 13 -2 4 5 15 16 24 10 9 19 13 19 9 0 -4 5 1 11
11 5 9 17 17 24 17 8 0 15 5 15 10 0 6 7 10 16 10 8 0 12 5 9 10 -3 6 1 10 9
10 9 0 16 5 16 11 0 5 4 8 8 5 5 -3 14 4 22 14 8 10 17 17 22 14 4 -3 8 0 8 5
0 6 7 11 16 11 8 0 13 4 10 9 -3 5 5 12 19 15 15 4 25 14 25 24 0 15 2 15 10
2 8 -13 10 -13 10 2 0 9 5 20 12 24 7 5 8 3 3 -7 -7 -11 -5 -11 11 1 10 8 25
21 32 28 8 7 18 10 23 7 5 -4 9 2 9 11 0 10 3 14 6 11 4 -4 15 3 25 14 9 11
20 20 23 20 24 -3 36 0 31 9 -3 5 6 12 20 16 14 3 22 11 18 17 -4 6 0 8 10 4
11 -4 17 -1 17 9 0 8 5 12 11 9 6 -4 17 1 25 11 9 11 12 12 8 4 -7 -13 -5 -13
9 -1 9 7 14 18 10 24 -4 6 -1 7 7 2 8 -5 18 -2 26 9 7 10 15 17 18 18 19 0 46
12 46 19 0 5 7 9 15 9 9 0 18 6 21 14 3 8 12 12 20 9 8 -3 14 0 14 7 0 7 7 10
16 6 8 -3 12 -2 9 4 -6 9 7 14 27 11 4 0 5 6 2 14 -5 11 -2 13 12 8 13 -5 15
-3 9 7 -5 8 -4 11 3 7 14 -9 43 3 36 14 -3 5 3 6 12 2 12 -4 15 -3 10 6 -4 6
-4 11 1 10 22 -4 43 2 38 11 -3 6 1 7 9 4 9 -3 16 -1 16 5 0 6 7 11 15 11 8 0
15 5 15 11 0 8 6 7 18 -2 9 -7 14 -10 10 -5 -8 10 14 36 25 29 4 -2 7 2 7 9 0
9 3 9 10 -2 8 -13 10 -12 10 3 0 10 4 16 10 12 5 -3 17 1 27 10 10 8 23 16 28
16 6 1 19 6 30 12 11 6 25 12 30 12 23 2 44 18 38 28 -3 5 -1 7 5 4 15 -10 43
3 35 16 -3 6 -1 7 6 3 6 -4 18 -2 26 4 8 6 18 9 24 6 5 -3 12 2 15 11 6 15 8
15 16 3 8 -12 10 -12 10 4 0 16 2 17 17 5 9 -8 14 -9 10 -3 -8 13 19 27 34 18
5 -3 12 2 15 10 3 9 17 16 29 16 13 0 25 5 27 10 2 6 13 12 26 13 12 0 22 5
22 10 0 4 5 5 11 1 6 -3 15 -1 19 6 4 6 19 13 33 13 14 1 25 7 24 12 -1 6 6 9
16 7 9 -2 17 3 17 9 0 7 3 9 7 6 3 -4 13 -1 21 6 11 8 14 8 9 0 -4 -6 10 -3
30 7 21 10 41 16 45 13 5 -2 8 1 8 7 0 6 5 8 11 4 6 -3 15 -1 19 6 4 7 21 13
38 13 17 1 28 6 25 11 -4 5 3 7 15 4 13 -4 22 -1 22 5 0 6 3 7 7 4 3 -4 12 -2
20 5 7 6 16 8 19 5 4 -3 13 1 21 9 9 8 22 13 29 10 8 -3 14 -1 14 4 0 5 7 7
15 4 8 -4 15 -1 15 6 0 9 4 9 17 -1 11 -10 14 -10 9 -1 -6 11 18 18 47 13 4 0
7 3 7 7 0 4 11 9 26 10 14 1 34 7 45 12 11 6 24 8 29 5 5 -3 13 3 19 12 9 15
12 15 20 4 6 -9 11 -10 15 -2 4 6 12 9 17 6 5 -4 9 -2 9 4 0 6 14 9 30 7 17
-2 33 1 37 7 4 6 1 7 -7 2 -9 -5 -11 -4 -6 4 6 9 11 9 22 0 11 -9 14 -9 14 0
0 7 5 9 10 6 6 -4 17 -1 25 5 12 10 15 10 15 -1 0 -9 3 -10 8 -4 8 12 28 18
59 18 12 1 19 5 17 9 -5 7 34 13 65 9 8 -2 10 2 5 11 -6 11 -5 11 8 0 12 -9
18 -10 23 -2 5 8 11 7 23 -2 12 -10 14 -10 8 0 -7 11 5 17 28 13 4 -1 14 4 22
10 11 9 14 8 14 -7 0 -14 3 -15 8 -6 5 7 19 15 33 18 36 8 101 17 127 18 12 1
22 4 22 9 0 4 5 7 11 7 5 0 7 -6 3 -12 -4 -7 2 -4 14 6 12 11 22 15 22 10 0
-5 11 -9 24 -9 13 0 22 3 19 8 -7 12 12 8 26 -5 11 -10 13 -10 7 0 -5 8 2 12
23 12 17 0 33 -1 34 -2 2 -2 11 3 20 11 13 10 20 11 31 2 10 -9 16 -9 21 -1 5
8 10 8 20 0 9 -8 17 -7 28 5 10 9 18 11 22 5 4 -6 12 -7 18 -3 6 4 26 6 44 5
21 -2 33 2 33 10 0 9 3 9 11 -2 8 -12 12 -12 16 -2 4 10 8 10 20 1 9 -8 17 -9
21 -3 10 13 35 17 27 4 -3 -5 -1 -10 4 -10 6 0 11 3 11 8 0 4 41 9 91 10 50 1
95 5 100 8 5 3 9 0 9 -6 0 -6 5 -8 13 -3 6 4 23 6 36 4 17 -2 21 1 15 11 -6
11 -5 11 8 0 9 -7 29 -12 45 -10z m4823 -102 c0 -5 -2 -10 -4 -10 -3 0 -8 5
-11 10 -3 6 -1 10 4 10 6 0 11 -4 11 -10z"/>
<path d="M13850 15856 c0 -2 8 -10 18 -17 15 -13 16 -12 3 4 -13 16 -21 21
-21 13z"/>
<path d="M17583 16828 c-21 -11 -264 -160 -540 -330 -348 -214 -501 -314 -495
-322 116 -192 167 -266 181 -261 9 4 72 41 141 84 265 165 735 453 746 458 6
2 56 -47 110 -109 54 -62 103 -118 109 -124 5 -6 31 -36 56 -65 40 -46 289
-333 474 -544 28 -33 85 -98 126 -145 40 -47 78 -90 84 -96 5 -6 31 -35 57
-65 25 -30 54 -63 65 -75 10 -12 43 -50 73 -85 30 -34 91 -104 134 -153 43
-50 102 -117 130 -150 28 -32 56 -64 61 -70 6 -6 55 -63 109 -126 55 -63 104
-120 110 -125 6 -6 36 -39 66 -75 30 -36 57 -67 60 -70 3 -3 35 -39 70 -80 36
-41 77 -88 92 -105 14 -16 108 -124 208 -240 101 -115 208 -239 239 -274 31
-35 64 -73 74 -85 85 -98 339 -390 402 -461 29 -33 85 -98 125 -145 101 -117
198 -227 243 -275 l37 -40 -22 -15 c-11 -8 -52 -31 -89 -52 -37 -20 -152 -82
-256 -138 -103 -57 -215 -117 -248 -135 -33 -18 -190 -103 -350 -190 -159 -86
-317 -172 -350 -190 -33 -18 -139 -75 -235 -127 -96 -52 -204 -111 -240 -130
-36 -20 -85 -47 -110 -60 -25 -14 -79 -43 -120 -65 -393 -211 -660 -359 -682
-381 -41 -38 -52 -82 -44 -186 4 -50 10 -138 14 -196 15 -221 7 -954 -12
-1070 -3 -14 -7 -60 -11 -102 -3 -42 -8 -86 -10 -97 -2 -11 -6 -44 -9 -73 -10
-88 -16 -130 -26 -188 -6 -30 -13 -75 -16 -100 -10 -76 -64 -338 -99 -482
-103 -421 -240 -809 -429 -1220 -14 -31 -26 -61 -26 -65 0 -5 66 -41 146 -80
l146 -71 50 107 c198 422 369 929 474 1406 8 32 54 268 58 295 22 127 36 222
41 260 3 25 9 77 14 115 11 79 22 180 36 340 19 218 24 676 11 945 -14 276
-16 250 24 273 19 11 62 34 95 52 272 148 543 294 605 328 75 40 260 140 455
247 28 15 86 46 130 70 44 24 152 82 240 130 88 48 196 107 240 130 44 23 89
48 100 55 11 6 70 38 130 70 61 32 115 61 120 65 6 4 60 33 120 65 61 32 115
61 120 65 6 4 51 29 100 55 50 26 115 61 145 78 30 16 69 37 85 46 78 42 115
98 111 174 -2 46 -28 94 -83 152 -15 17 -57 64 -93 105 -36 41 -69 80 -75 86
-33 36 -77 87 -125 144 -30 36 -59 70 -65 76 -30 34 -140 159 -275 314 -210
242 -253 291 -265 304 -5 6 -37 43 -70 81 -33 39 -62 72 -65 75 -3 3 -48 55
-100 115 -52 61 -97 112 -100 115 -3 3 -66 75 -140 160 -74 85 -137 157 -140
160 -3 3 -59 68 -125 145 -66 77 -125 145 -131 150 -5 6 -39 44 -75 85 -35 41
-76 88 -90 105 -15 16 -64 73 -109 125 -46 52 -107 122 -136 155 -78 89 -92
105 -138 159 -22 27 -46 54 -51 60 -6 6 -59 67 -119 136 -60 69 -123 141 -140
160 -17 19 -74 85 -126 145 -52 61 -97 112 -100 115 -3 3 -62 70 -130 150 -69
80 -130 150 -136 155 -10 9 -169 193 -225 259 -13 16 -31 36 -40 45 -8 9 -40
45 -69 79 -30 35 -68 71 -85 79 -45 24 -108 24 -152 1z"/>
<path d="M1958 16143 c-171 -254 -388 -601 -476 -763 -55 -102 -56 -104 -69
-120 -18 -23 -275 -533 -328 -650 -26 -58 -61 -134 -77 -170 -200 -435 -441
-1158 -548 -1637 -11 -51 -29 -132 -39 -180 -11 -49 -22 -99 -24 -113 -3 -14
-12 -63 -21 -110 -8 -47 -18 -103 -21 -125 -3 -22 -10 -62 -15 -90 -10 -56
-18 -110 -26 -170 -2 -22 -7 -58 -10 -80 -5 -42 -12 -95 -19 -155 -4 -34 -13
-121 -21 -210 -2 -25 -6 -78 -9 -119 -2 -41 -7 -113 -11 -160 -16 -194 -8
-1023 11 -1176 2 -16 7 -68 10 -115 4 -47 8 -103 11 -125 2 -22 6 -67 9 -100
3 -33 7 -67 10 -75 2 -8 7 -44 10 -80 4 -36 9 -72 10 -81 2 -9 6 -40 10 -70 5
-48 18 -125 29 -184 2 -11 7 -42 10 -70 17 -127 88 -470 166 -795 69 -292 262
-915 359 -1164 9 -23 9 -32 -1 -41 -10 -9 -397 -227 -643 -363 -115 -63 -198
-118 -216 -144 -46 -63 -41 -86 86 -458 31 -91 88 -257 126 -370 39 -113 73
-212 76 -220 3 -8 7 -19 9 -25 2 -5 139 -417 306 -915 167 -498 319 -954 337
-1015 19 -60 57 -177 83 -260 120 -369 159 -491 208 -645 28 -91 55 -176 60
-190 5 -14 23 -72 40 -130 18 -58 45 -145 61 -195 33 -106 96 -311 114 -375
47 -163 95 -304 115 -333 13 -19 41 -42 64 -51 75 -33 112 -19 416 152 25 14
128 71 230 127 102 56 257 141 345 190 88 48 185 101 215 117 144 78 181 101
178 112 -2 6 -37 73 -78 148 l-74 136 -51 -28 c-193 -107 -331 -183 -400 -220
-44 -23 -84 -46 -90 -50 -5 -4 -50 -29 -100 -55 -49 -27 -103 -56 -120 -65
-61 -34 -142 -78 -210 -115 -38 -21 -76 -42 -82 -48 -7 -5 -13 -7 -13 -4 0 4
-158 518 -245 797 -13 41 -37 118 -53 170 -16 52 -50 158 -75 235 -25 77 -113
349 -196 605 -82 256 -254 776 -381 1155 -128 380 -242 722 -255 760 -12 39
-80 237 -150 440 -70 204 -133 389 -141 412 l-13 43 137 76 c75 42 175 99 220
126 46 26 86 48 88 48 2 0 50 26 107 59 88 50 146 83 242 135 34 19 76 60 92
90 25 48 18 103 -32 236 -98 260 -307 916 -340 1067 -2 10 -17 72 -34 138 -36
143 -81 348 -111 500 -12 61 -23 117 -25 125 -1 8 -8 49 -15 90 -6 41 -13 86
-16 100 -6 37 -33 215 -44 295 -10 72 -16 120 -26 235 -3 36 -7 76 -10 90 -2
14 -6 68 -10 120 -3 52 -7 109 -10 125 -8 54 -18 386 -18 590 0 242 12 561 29
730 3 33 8 87 10 120 8 91 19 174 46 370 11 77 21 147 24 155 2 8 7 40 10 70
4 30 8 57 10 60 2 3 6 23 9 45 6 37 73 357 79 380 2 6 9 37 16 70 69 323 302
1039 427 1312 8 17 14 34 14 37 0 11 159 364 229 506 68 141 180 357 234 452
185 329 331 566 513 835 57 84 104 156 104 160 0 6 -204 154 -256 186 -8 5
-42 -37 -106 -130z"/>
<path d="M15568 4417 c-186 -171 -238 -218 -273 -248 -22 -19 -42 -36 -45 -39
-7 -8 -247 -209 -290 -243 -169 -133 -234 -182 -369 -281 -222 -162 -351 -249
-556 -376 -99 -62 -192 -121 -207 -131 -15 -11 -30 -19 -33 -19 -3 0 -22 -11
-43 -24 -20 -12 -109 -63 -197 -111 -654 -359 -1328 -625 -2020 -798 -160 -40
-292 -70 -350 -82 -11 -2 -40 -8 -65 -13 -25 -6 -63 -13 -85 -16 -22 -4 -62
-10 -90 -16 -27 -5 -66 -12 -85 -14 -19 -3 -44 -7 -55 -10 -11 -2 -45 -7 -75
-11 -30 -4 -62 -9 -70 -10 -8 -2 -40 -6 -71 -9 -31 -4 -65 -8 -75 -10 -26 -5
-157 -18 -309 -31 -372 -33 -871 -37 -1265 -10 -126 8 -215 15 -250 20 -34 4
-65 8 -195 21 -33 3 -71 7 -85 9 -14 2 -45 6 -70 10 -25 3 -56 8 -70 10 -14 2
-45 7 -70 10 -25 4 -57 8 -72 11 -16 2 -43 6 -60 9 -18 3 -71 13 -118 21 -47
9 -98 18 -115 21 -16 2 -73 13 -125 24 -52 11 -104 22 -115 24 -341 70 -894
227 -1255 356 -275 99 -657 250 -813 323 -43 20 -80 36 -83 36 -2 0 -30 13
-63 29 l-59 28 -53 -116 c-30 -64 -61 -132 -71 -151 l-16 -35 41 -20 c34 -16
208 -93 362 -160 17 -8 66 -28 110 -45 44 -17 94 -38 110 -45 53 -24 385 -145
565 -206 410 -139 885 -267 1310 -353 120 -24 376 -69 461 -80 25 -4 57 -8 70
-10 42 -7 114 -17 160 -22 24 -2 58 -6 74 -9 17 -2 64 -7 105 -11 41 -3 84 -8
95 -10 11 -2 54 -6 95 -9 41 -3 98 -7 125 -10 312 -26 1015 -26 1300 1 28 3
68 6 90 9 22 2 76 7 120 11 126 11 117 10 336 40 20 2 54 7 74 9 45 6 72 11
180 30 44 8 98 17 120 21 118 17 655 143 805 189 25 8 104 32 175 54 833 254
1722 690 2490 1222 167 115 384 274 490 358 38 31 76 61 85 68 18 14 80 64
141 113 126 102 365 312 511 450 l59 55 -28 30 c-15 17 -66 71 -114 121 l-87
90 -44 -39z"/>
</g>
</svg>
