<svg fill="#000000" xmlns="http://www.w3.org/2000/svg"  viewBox="0 0 24 24" width="24px" height="24px"><path d="M 12 2 C 6.4889941 2 2 6.4889982 2 12 C 2 17.511002 6.4889941 22 12 22 C 17.511006 22 22 17.511002 22 12 C 22 6.4889982 17.511006 2 12 2 z M 12 4 C 16.430126 4 20 7.5698765 20 12 C 20 12.355087 19.843302 12.657361 19.798828 13 L 12 13 L 12 4 z M 7 5.7519531 L 7 13 L 4.2011719 13 C 4.156698 12.657361 4 12.355087 4 12 C 4 9.4657836 5.1708615 7.2159522 7 5.7519531 z M 4.6035156 15 L 7 15 L 7 18.210938 C 5.9558342 17.3629 5.1168984 16.270094 4.6035156 15 z M 12 15 L 19.396484 15 C 18.211492 17.931635 15.364864 20 12 20 L 12 15 z"/></svg>