<svg fill="#000000" xmlns="http://www.w3.org/2000/svg"  viewBox="0 0 30 30" width="30px" height="30px"><path d="M 15 3 C 8.373 3 3 8.373 3 15 C 3 21.627 8.373 27 15 27 C 21.627 27 27 21.627 27 15 C 27 8.373 21.627 3 15 3 z M 23.251953 10.628906 C 23.524953 10.628656 23.796813 10.639109 23.882812 10.662109 C 24.009812 10.696109 24.013328 10.715406 23.986328 11.316406 C 23.971328 11.656406 23.941875 12.739656 23.921875 13.722656 L 23.886719 15.509766 L 22.617188 15.509766 L 22.585938 14.853516 C 22.567937 14.493516 22.536578 13.412219 22.517578 12.449219 L 22.482422 10.699219 L 22.617188 10.664062 C 22.704187 10.641063 22.978953 10.629156 23.251953 10.628906 z M 8.3027344 12.605469 C 8.6607344 12.585719 9.0287969 12.609641 9.2792969 12.681641 C 9.9422969 12.872641 10.461188 13.375609 10.742188 14.099609 C 10.902188 14.511609 10.963375 15.491328 10.859375 15.986328 C 10.696375 16.764328 10.131562 17.468938 9.4765625 17.710938 C 9.0605625 17.865938 8.1774844 17.9175 7.7714844 17.8125 C 6.8274844 17.5685 6.2505938 16.903031 6.0585938 15.832031 C 5.8155937 14.480031 6.3448125 13.261156 7.3828125 12.785156 C 7.5963125 12.687156 7.9447344 12.625219 8.3027344 12.605469 z M 13.488281 12.609375 C 13.958281 12.563375 14.778484 12.628234 15.146484 12.740234 C 15.404484 12.818234 15.410484 12.826922 15.396484 13.044922 C 15.388484 13.167922 15.341016 13.388156 15.291016 13.535156 L 15.201172 13.804688 L 14.806641 13.693359 C 14.537641 13.617359 14.276234 13.589562 13.990234 13.601562 C 13.475234 13.624562 13.324219 13.727547 13.324219 14.060547 C 13.324219 14.326547 13.403062 14.376875 14.289062 14.671875 C 14.969062 14.898875 15.196344 15.038516 15.402344 15.353516 C 15.685344 15.785516 15.683484 16.496078 15.396484 16.955078 C 15.036484 17.531078 14.396656 17.833281 13.472656 17.863281 C 13.148656 17.874281 12.816328 17.870469 12.736328 17.855469 C 12.655328 17.841469 12.411406 17.786422 12.191406 17.732422 C 11.793406 17.635422 11.792125 17.634031 11.828125 17.457031 C 11.897125 17.114031 12.033078 16.675484 12.080078 16.646484 C 12.106078 16.630484 12.257063 16.654172 12.414062 16.701172 C 12.830063 16.825172 13.431891 16.868969 13.712891 16.792969 C 14.094891 16.690969 14.263672 16.527672 14.263672 16.263672 C 14.263672 15.964672 14.100063 15.842859 13.414062 15.630859 C 12.344062 15.299859 12.028453 15.026422 11.939453 14.357422 C 11.888453 13.975422 11.993937 13.545906 12.210938 13.253906 C 12.451937 12.929906 12.989281 12.658375 13.488281 12.609375 z M 16.666016 12.660156 L 18.017578 12.660156 L 18.035156 14.361328 C 18.052156 15.925328 18.063875 16.079969 18.171875 16.292969 C 18.349875 16.641969 18.600687 16.757812 19.179688 16.757812 C 19.443687 16.757812 19.6725 16.744516 19.6875 16.728516 C 19.7315 16.680516 19.784156 15.099891 19.785156 13.837891 L 19.787109 12.660156 L 21.0625 12.660156 L 21.099609 13.228516 C 21.120609 13.540516 21.138672 14.649359 21.138672 15.693359 L 21.138672 17.591797 L 20.595703 17.71875 C 19.982703 17.85975 18.898375 17.916031 18.359375 17.832031 C 17.639375 17.719031 17.150094 17.372438 16.871094 16.773438 L 16.701172 16.408203 L 16.683594 14.535156 L 16.666016 12.660156 z M 8.4433594 13.648438 C 7.8433594 13.648438 7.5475938 13.981109 7.4335938 14.787109 C 7.3575938 15.320109 7.438375 16.035281 7.609375 16.363281 C 7.779375 16.689281 8.0466406 16.845703 8.4316406 16.845703 C 8.6046406 16.844703 8.8220625 16.806766 8.9140625 16.759766 C 9.3710625 16.525766 9.5310937 16.060406 9.4960938 15.066406 C 9.4770937 14.526406 9.451125 14.383484 9.328125 14.146484 C 9.142125 13.789484 8.8923594 13.648437 8.4433594 13.648438 z M 23.263672 16.322266 C 23.818672 16.322266 23.909312 16.337781 23.945312 16.425781 C 24.002312 16.562781 24.000359 17.696906 23.943359 17.753906 C 23.883359 17.811906 22.920313 17.837156 22.695312 17.785156 L 22.519531 17.744141 L 22.503906 17.115234 C 22.492906 16.700234 22.509688 16.457297 22.554688 16.404297 C 22.605687 16.344297 22.786672 16.322266 23.263672 16.322266 z"/></svg>