<?xml version="1.0" encoding="utf-8"?>
<!-- Generator: Adobe Illustrator 23.0.3, SVG Export Plug-In . SVG Version: 6.00 Build 0)  -->
<svg version="1.1" xmlns="http://www.w3.org/2000/svg" xmlns:xlink="http://www.w3.org/1999/xlink" x="0px" y="0px"
	 viewBox="0 0 660 660" style="enable-background:new 0 0 660 660;" xml:space="preserve">
<style type="text/css">
	.st0{display:none;}
	.st1{fill:#FFFFFF;}
	.st2{display:inline;fill:#282828;}
	.st3{fill:url(#SVGID_1_);}
	.st4{fill:none;stroke:url(#SVGID_2_);stroke-width:10;stroke-miterlimit:10;}
	.st5{display:inline;}
	.st6{display:inline;fill:#FFFFFF;}
</style>
<g id="Fond" class="st0">
	<rect id="Blanc" x="-29.64" y="-29" class="st1" width="729.41" height="729.41"/>
	<rect id="Anthracite" x="-77.52" y="-87.67" class="st2" width="825.18" height="825.18"/>
</g>
<g id="Logo_UA">
	<g id="Forme_intérieure">
		<linearGradient id="SVGID_1_" gradientUnits="userSpaceOnUse" x1="168.8034" y1="109.4162" x2="415.9752" y2="537.5302">
			<stop  offset="0" style="stop-color:#FB560C"/>
			<stop  offset="1" style="stop-color:#E21562"/>
		</linearGradient>
		<path class="st3" d="M612.52,261.9l-79.98-90.52l-31.75,18.01C456.8,121.18,380.15,76.02,292.95,76.02
			c-136.49,0-247.13,110.64-247.13,247.13c0,39.42,9.24,76.67,25.66,109.73l-32.91,18.67l37.62,113.49l72.7-41.09
			c40.56,29.15,90.3,46.33,144.06,46.33c136.49,0,247.13-110.64,247.13-247.13c0-6.68-0.27-13.31-0.8-19.86L612.52,261.9z
			 M284.73,483.05c-103.93,0-188.18-84.25-188.18-188.18s84.25-188.18,188.18-188.18s188.18,84.25,188.18,188.18
			S388.66,483.05,284.73,483.05z"/>
	</g>
	<g id="Ligne_extérieure">
		<linearGradient id="SVGID_2_" gradientUnits="userSpaceOnUse" x1="157.3421" y1="89.5602" x2="427.8748" y2="558.1365">
			<stop  offset="0" style="stop-color:#FB560C"/>
			<stop  offset="1" style="stop-color:#E21562"/>
		</linearGradient>
		<path class="st4" d="M506.43,164.67l30.09-17.06l38.97,44.1l66.37,75.12l-83.21,47.03c0.11,3.11,0.16,6.22,0.16,9.29
			c0,34.89-6.67,68.75-19.42,100.13 M179.1,82.75c35.13-16.67,73.82-25.46,113.86-25.46c38.38,0,75.49,8.16,109.25,23.35
			c8.42,3.79,16.63,8.01,24.6,12.66 M104.98,570.28l-39.4,22.27l-15.07-45.46L15.96,442.85l31.38-17.8
			c-3.33-8-6.26-16.12-8.78-24.36c-7.62-24.94-11.47-50.89-11.47-77.55c0-59.34,19.31-115.7,54.95-161.93 M480.94,511.13
			C430.73,561.35,363.97,589,292.95,589c-24.21,0-47.96-3.22-70.79-9.5c-17.65-4.86-34.75-11.55-51.08-20.01"/>
	</g>
</g>
</svg>
